<svg width="348" height="166" viewBox="0 0 348 166" fill="none" xmlns="http://www.w3.org/2000/svg">
<path d="M1.1631 153.861C0.0270612 159.266 3.48753 164.568 8.89227 165.705C14.297 166.841 19.5994 163.38 20.7354 157.975L1.1631 153.861ZM90.6859 68.5157L80.8657 70.4035L90.6859 68.5157ZM319.534 7.30518C317.853 2.04434 312.226 -0.857811 306.965 0.823059L221.234 28.2144C215.973 29.8953 213.071 35.5227 214.752 40.7835C216.433 46.0444 222.06 48.9465 227.321 47.2656L303.526 22.9178L327.874 99.1226C329.555 104.383 335.182 107.286 340.443 105.605C345.704 103.924 348.606 98.2965 346.925 93.0357L319.534 7.30518ZM10.9493 155.918C20.7354 157.975 20.7354 157.976 20.7355 157.975C20.7358 157.974 20.7361 157.972 20.7367 157.969C20.7379 157.963 20.7399 157.954 20.7426 157.941C20.7481 157.915 20.7565 157.875 20.768 157.821C20.791 157.713 20.826 157.549 20.8727 157.331C20.9661 156.895 21.1064 156.245 21.2914 155.4C21.6614 153.709 22.2101 151.239 22.9201 148.144C24.3405 141.95 26.4034 133.265 28.969 123.316C34.1238 103.327 41.2185 78.5918 49.117 58.7308C53.0858 48.751 57.083 40.4534 60.9073 34.6893C62.8192 31.8076 64.4695 29.8956 65.7785 28.7531C67.1228 27.5797 67.5287 27.7154 67.0343 27.7738C64.7738 28.0411 66.1498 25.7679 69.9742 33.1108C73.4762 39.8348 77.2542 51.6173 80.8657 70.4035L100.506 66.6278C96.7891 47.2929 92.5789 33.216 87.7126 23.8723C83.1685 15.1476 75.7959 6.59861 64.686 7.91219C59.767 8.49378 55.7229 10.9831 52.627 13.6853C49.4959 16.4182 46.7157 19.9034 44.2418 23.6321C39.2945 31.0888 34.6988 40.8641 30.5326 51.34C22.1612 72.3902 14.8182 98.0968 9.60261 118.321C6.98309 128.479 4.87772 137.344 3.42614 143.673C2.70008 146.839 2.13687 149.374 1.754 151.123C1.56254 151.998 1.41612 152.676 1.31692 153.139C1.26732 153.37 1.22952 153.548 1.20379 153.669C1.19093 153.73 1.18109 153.776 1.17429 153.808C1.1709 153.824 1.16826 153.837 1.16639 153.846C1.16546 153.85 1.16464 153.854 1.16417 153.856C1.16354 153.859 1.1631 153.861 10.9493 155.918ZM80.8657 70.4035C84.5538 89.5878 87.8922 103.362 91.0717 112.771C92.6548 117.456 94.3229 121.44 96.179 124.585C97.8874 127.479 100.542 131.039 104.723 132.865C109.898 135.126 114.81 133.727 118.185 131.373C121.07 129.361 123.14 126.521 124.58 124.23C127.53 119.535 130.296 113.012 132.8 107.076C135.464 100.759 138.044 94.5585 140.869 89.2137C143.819 83.634 146.324 80.4174 148.207 79.0469C148.969 78.4928 149.227 78.5414 149.091 78.5503C148.912 78.5619 149.231 78.4459 150.263 79.0561C152.787 80.548 157.219 84.9852 163.259 95.8563L180.742 86.1435C174.281 74.5146 167.714 66.1393 160.443 61.8402C156.577 59.5549 152.301 58.2989 147.791 58.5926C143.325 58.8834 139.516 60.6363 136.44 62.8753C130.646 67.091 126.386 73.8161 123.187 79.8679C119.865 86.1545 116.915 93.2746 114.372 99.3029C111.669 105.711 109.551 110.557 107.646 113.589C106.658 115.16 106.308 115.273 106.743 114.969C107.668 114.324 110.101 113.389 112.731 114.538C114.366 115.253 114.409 116.124 113.403 114.418C112.544 112.963 111.394 110.437 110.019 106.369C107.283 98.2714 104.147 85.5646 100.506 66.6278L80.8657 70.4035ZM163.259 95.8563C170.095 108.162 178.123 117.008 187.474 122.141C197.027 127.384 207.077 128.261 216.794 126.136C235.355 122.077 252.851 107.054 267.189 91.1114C281.881 74.7765 294.801 55.6966 303.979 40.8697C308.588 33.4222 312.299 26.974 314.863 22.376C316.146 20.0757 317.143 18.235 317.826 16.9597C318.167 16.322 318.429 15.8254 318.609 15.4832C318.698 15.312 318.768 15.1795 318.816 15.0871C318.84 15.0409 318.858 15.0048 318.872 14.9789C318.879 14.9659 318.884 14.9556 318.888 14.9478C318.89 14.9439 318.892 14.94 318.893 14.9381C318.895 14.9348 318.896 14.9322 310.008 10.3487C301.121 5.76511 301.121 5.76382 301.122 5.76318C301.121 5.76383 301.121 5.76383 301.121 5.76512C301.119 5.7677 301.117 5.77284 301.113 5.78053C301.105 5.7959 301.091 5.82144 301.073 5.85693C301.036 5.92792 300.978 6.03874 300.9 6.18774C300.744 6.48577 300.506 6.93643 300.19 7.52663C299.558 8.70721 298.617 10.4449 297.395 12.6351C294.951 17.018 291.395 23.1989 286.973 30.3437C278.086 44.7013 265.88 62.6593 252.319 77.7372C238.405 93.2079 224.524 103.973 212.521 106.598C206.956 107.815 201.928 107.259 197.097 104.608C192.065 101.846 186.405 96.338 180.742 86.1435L163.259 95.8563Z" fill="#FFB7F8"/>
</svg>
