<svg width="261" height="261" viewBox="0 0 261 261" fill="none" xmlns="http://www.w3.org/2000/svg">
<path d="M158.064 27.6289L168.783 71.5499L213.266 63.4774L196.122 105.31L236.854 124.926L198.395 148.692L219.819 188.504L174.735 185.126L168.666 229.926L134.179 200.694L102.936 233.371L92.2176 189.45L47.7342 197.523L64.8789 155.69L24.1462 136.074L62.6053 112.308L41.1818 72.4959L86.2653 75.8744L92.334 31.0737L126.822 60.3063L158.064 27.6289Z" fill="#ff9df5"/>
<path d="M77.0739 128.525C70.6911 126.815 68.9533 121.508 70.5042 115.72C72.229 109.283 77.8226 105.825 84.0431 107.492C89.236 108.883 91.4298 112.921 90.4877 116.437C89.9804 118.33 88.6979 119.871 86.019 118.834C83.8123 117.982 84.4428 115.629 85.1264 114.16L86.2746 111.713C86.8171 110.554 86.3583 109.562 84.9113 109.986L74.7551 112.946C73.5264 113.312 73.2114 114.272 74.2603 114.901L78.7663 117.557C80.5416 118.613 80.6882 121.203 78.0902 121.811L76.3925 122.197C72.0698 123.184 75.6071 128.915 78.8365 126.707L84.0587 123.121C86.8278 121.225 89.0401 123.354 88.511 125.328C87.8733 127.708 82.2127 129.902 77.0739 128.525ZM99.5035 134.535C93.2288 132.854 90.9075 128.318 92.8062 121.232C94.7049 114.146 98.9539 111.487 105.229 113.169C111.53 114.857 113.881 119.284 111.982 126.37C110.083 133.456 105.805 136.223 99.5035 134.535ZM110.046 125.591C111.262 124.728 111.318 123.439 110.157 122.577L101.009 115.719C99.0768 114.274 96.9961 115.224 97.0992 117.976L97.627 130.612C97.6829 132.134 99.2399 133.247 100.594 132.305L110.046 125.591ZM128.788 119.916C134.711 121.503 136.552 125.127 135.08 130.617C133.993 134.674 131.471 137.274 127.387 136.18C125.061 135.556 123.719 134.182 122.544 131.317L120.528 126.399C120.084 125.353 118.827 124.958 117.743 125.653C116.795 126.269 116.611 127.495 117.104 128.468L119.431 133.091C120.199 134.66 120.384 135.811 120.029 137.136C119.521 139.029 118.141 139.529 116.058 138.971C114.192 138.471 112.655 137.392 113.568 133.984L116.691 122.328C117.503 119.298 119.754 117.496 123.27 118.438L128.788 119.916ZM120.58 123.717C120.457 124.177 120.619 124.655 121.201 125.188L129.31 132.463C131.672 134.574 133.651 133.249 132.781 130.871L130.249 123.873C129.645 122.233 129.195 121.967 127.575 122.171L122.021 122.886C121.238 122.995 120.732 123.149 120.58 123.717ZM137.61 128.715C137.726 128.282 138.516 127.712 139.403 127.109L143.401 124.411C144.143 123.915 145.007 123.827 145.791 124.037C147.17 124.407 148.242 125.709 147.807 127.331C147.401 128.846 146.293 129.303 144.872 129.415L141.622 129.645C141.241 129.659 141.013 129.859 140.941 130.13C140.818 130.589 141.278 130.713 141.528 130.751L143.425 131.027C146.244 131.435 146.548 133.98 144.212 135.557L137.466 140.069C136.903 140.44 136.71 140.62 136.637 140.89C136.492 141.431 136.829 142.014 137.401 141.936L141.023 141.399C142.29 141.216 143.571 141.734 143.313 143.346C143.017 145.209 140.607 145.549 138.524 144.991C135.441 144.164 134.558 141.725 136.013 139.216L140.349 131.797C140.454 131.622 140.525 131.467 140.561 131.332C140.728 130.71 140.299 130.363 139.433 130.131L138.27 129.82C137.594 129.639 137.479 129.202 137.61 128.715ZM155.238 130.076C153.706 129.521 152.807 130.062 152.604 130.82C152.394 131.604 152.871 132.312 154.463 132.97L163.826 136.754C165.816 137.549 166.186 138.981 165.838 140.279C165.57 141.28 164.851 142.45 162.268 142.569L150.821 143.097C149.442 143.162 149.08 143.645 148.899 144.321C148.74 144.916 149.173 146.22 150.621 146.116L162.719 145.212C165.263 145.024 166.306 145.999 165.952 147.644C165.62 149.207 164.631 149.87 163.016 150.162C161.252 150.472 157.029 150.007 153.412 149.009C149.815 148.045 146.786 146.364 147.511 143.659C147.779 142.658 148.716 141.866 150.165 141.327L159.725 137.888C161.01 137.42 160.737 136.275 159.355 136.455L153.352 137.224C150.411 137.595 148.46 135.681 149.12 133.22C150.439 128.297 157.081 127.092 164.005 128.947C168.846 130.244 170.199 131.795 169.742 133.499C169.51 134.364 168.833 135.052 166.856 134.32L155.238 130.076ZM185.495 135.111C191.364 136.683 192.649 141.086 190.873 147.712C189.011 154.663 184.098 157.202 175.856 154.965C168.886 153.068 169.219 146.2 173.353 141.481L174.897 139.721C175.61 138.898 175.313 138.383 174.154 137.841C172.712 137.164 172.284 135.948 172.618 134.704C172.995 133.298 174.325 132.118 176.11 132.596L185.495 135.111ZM188.391 143.018C190.176 140.684 188.754 138.854 186.589 138.709L179.48 138.195C177.065 138.012 175.955 139.019 175.976 140.996L176.138 151.533C176.176 154.529 179.316 154.819 180.691 153.042L188.391 143.018Z" fill="white"/>
</svg>
