<svg width="262" height="262" viewBox="0 0 262 262" fill="none" xmlns="http://www.w3.org/2000/svg">
<path d="M158.954 28.1162L169.436 72.0941L213.963 64.2606L196.593 106.001L237.22 125.835L198.634 149.395L219.843 189.321L174.779 185.7L168.469 230.468L134.139 201.05L102.722 233.559L92.2391 189.582L47.713 197.415L65.0821 155.675L24.4553 135.84L63.0415 112.281L41.8321 72.355L86.8968 75.9755L93.2061 31.208L127.536 60.6254L158.954 28.1162Z" fill="#FFB7F8"/>
<path d="M81.2531 128.525C75.7901 127.03 74.325 122.474 75.6809 117.52C77.1889 112.01 81.9993 109.072 87.3235 110.529C91.768 111.746 93.6298 115.217 92.8061 118.226C92.3626 119.846 91.2563 121.161 88.9648 120.26C87.0773 119.519 87.6286 117.505 88.2212 116.249L89.2167 114.158C89.687 113.167 89.2984 112.314 88.0561 112.671L79.3373 115.161C78.2824 115.47 78.008 116.29 78.9042 116.834L82.7542 119.132C84.271 120.045 84.3847 122.266 82.1551 122.775L80.6982 123.098C76.9885 123.924 79.9941 128.852 82.7722 126.975L87.2649 123.925C89.647 122.313 91.5335 124.148 91.0709 125.838C90.5134 127.875 85.6514 129.729 81.2531 128.525ZM100.451 133.78C95.08 132.31 93.1113 128.412 94.7713 122.347C96.4314 116.282 100.086 114.023 105.456 115.493C110.85 116.969 112.844 120.774 111.184 126.839C109.524 132.904 105.844 135.256 100.451 133.78ZM109.528 126.162C110.575 125.428 110.628 124.323 109.637 123.579L101.827 117.659C100.178 116.412 98.3902 117.216 98.4659 119.576L98.8602 130.408C98.9011 131.713 100.23 132.675 101.395 131.874L109.528 126.162ZM125.618 121.384C130.688 122.772 132.249 125.887 130.963 130.586C130.012 134.058 127.838 136.275 124.343 135.318C122.352 134.773 121.208 133.589 120.214 131.127L118.509 126.903C118.133 126.004 117.058 125.66 116.125 126.251C115.31 126.774 115.147 127.824 115.565 128.66L117.538 132.634C118.189 133.982 118.342 134.969 118.031 136.104C117.588 137.724 116.402 138.146 114.62 137.658C113.023 137.221 111.71 136.289 112.508 133.373L115.239 123.396C115.949 120.803 117.887 119.268 120.896 120.092L125.618 121.384ZM118.566 124.605C118.458 124.998 118.595 125.409 119.091 125.868L126.008 132.141C128.023 133.962 129.725 132.835 128.99 130.792L126.853 124.783C126.343 123.374 125.958 123.144 124.568 123.312L119.804 123.899C119.133 123.989 118.699 124.119 118.566 124.605ZM133.139 128.967C133.241 128.597 133.921 128.111 134.683 127.598L138.123 125.305C138.761 124.882 139.502 124.811 140.173 124.995C141.354 125.318 142.266 126.439 141.886 127.828C141.531 129.124 140.58 129.511 139.361 129.6L136.574 129.783C136.247 129.793 136.052 129.963 135.988 130.195C135.88 130.588 136.274 130.696 136.489 130.73L138.113 130.975C140.527 131.338 140.776 133.521 138.767 134.862L132.964 138.698C132.48 139.013 132.313 139.167 132.25 139.398C132.123 139.861 132.409 140.362 132.899 140.298L136.007 139.854C137.093 139.704 138.189 140.153 137.961 141.534C137.698 143.129 135.631 143.409 133.848 142.921C131.209 142.199 130.464 140.104 131.723 137.96L135.473 131.621C135.564 131.472 135.625 131.339 135.657 131.224C135.802 130.691 135.436 130.392 134.696 130.189L133.7 129.917C133.122 129.758 133.025 129.384 133.139 128.967ZM148.243 130.215C146.932 129.731 146.159 130.192 145.981 130.84C145.798 131.511 146.203 132.12 147.565 132.692L155.573 135.978C157.275 136.668 157.586 137.898 157.282 139.009C157.047 139.865 156.425 140.865 154.211 140.955L144.397 141.355C143.214 141.404 142.902 141.816 142.744 142.395C142.605 142.904 142.97 144.024 144.212 143.941L154.586 143.223C156.766 143.073 157.656 143.914 157.345 145.322C157.054 146.66 156.203 147.224 154.817 147.466C153.304 147.724 149.686 147.306 146.59 146.434C143.511 145.591 140.924 144.136 141.557 141.821C141.792 140.965 142.599 140.29 143.843 139.834L152.053 136.931C153.156 136.536 152.928 135.553 151.742 135.701L146.593 136.332C144.071 136.637 142.408 134.987 142.984 132.881C144.137 128.668 149.836 127.665 155.762 129.287C159.906 130.421 161.058 131.757 160.659 133.215C160.456 133.956 159.873 134.543 158.181 133.905L148.243 130.215ZM174.154 134.669C179.177 136.044 180.258 139.824 178.706 145.495C177.077 151.444 172.855 153.598 165.801 151.642C159.835 149.984 160.152 144.099 163.717 140.074L165.049 138.572C165.664 137.869 165.412 137.427 164.421 136.957C163.188 136.371 162.827 135.326 163.118 134.261C163.448 133.058 164.594 132.053 166.121 132.471L174.154 134.669ZM176.6 141.46C178.141 139.468 176.93 137.892 175.075 137.758L168.984 137.285C166.915 137.117 165.959 137.975 165.968 139.669L166.058 148.702C166.077 151.27 168.767 151.533 169.953 150.017L176.6 141.46ZM183.545 149.109C183.18 149.532 182.888 149.601 182.662 149.514C182.391 149.415 182.24 149.15 182.356 148.634L184.021 141.55C184.56 139.309 185.62 137.435 188.352 138.182C190.783 138.847 190.174 141.617 188.77 143.199L183.545 149.109ZM183.905 153.612C183.992 154.929 183.25 155.547 182.316 155.69C180.739 155.905 178.643 155.655 178.543 153.836C178.496 152.828 178.777 151.984 180.412 151.735C181.989 151.52 183.784 151.688 183.905 153.612Z" fill="white"/>
</svg>
