<svg width="262" height="262" viewBox="0 0 262 262" fill="none" xmlns="http://www.w3.org/2000/svg">
<path d="M158.954 28.1162L169.436 72.0941L213.963 64.2606L196.593 106.001L237.22 125.835L198.634 149.395L219.843 189.321L174.779 185.7L168.469 230.468L134.139 201.05L102.722 233.559L92.2391 189.582L47.713 197.415L65.0821 155.675L24.4553 135.84L63.0415 112.281L41.8321 72.355L86.8968 75.9755L93.2061 31.208L127.536 60.6254L158.954 28.1162Z" fill="#FFB7F8"/>
<path d="M100.483 133.789C95.0203 132.294 93.5553 127.737 94.9112 122.783C96.4192 117.274 101.23 114.336 106.554 115.793C110.998 117.009 112.86 120.48 112.036 123.489C111.593 125.11 110.486 126.424 108.195 125.523C106.308 124.783 106.859 122.769 107.451 121.513L108.447 119.421C108.917 118.43 108.529 117.578 107.286 117.934L98.5675 120.425C97.5127 120.733 97.2383 121.554 98.1345 122.098L101.984 124.396C103.501 125.309 103.615 127.529 101.385 128.039L99.9284 128.362C96.2188 129.188 99.2243 134.116 102.002 132.239L106.495 129.189C108.877 127.576 110.764 129.412 110.301 131.101C109.744 133.138 104.882 134.993 100.483 133.789ZM119.681 139.043C114.31 137.573 112.342 133.675 114.002 127.61C115.662 121.546 119.316 119.286 124.686 120.756C130.08 122.232 132.074 126.038 130.414 132.103C128.754 138.168 125.074 140.52 119.681 139.043ZM128.758 131.426C129.805 130.692 129.858 129.587 128.868 128.843L121.057 122.923C119.408 121.675 117.62 122.48 117.696 124.84L118.09 135.672C118.131 136.977 119.461 137.938 120.626 137.137L128.758 131.426ZM144.849 126.648C149.918 128.036 151.479 131.15 150.193 135.849C149.243 139.322 147.068 141.538 143.573 140.581C141.582 140.037 140.438 138.853 139.445 136.391L137.739 132.167C137.363 131.268 136.288 130.924 135.355 131.514C134.54 132.038 134.377 133.088 134.795 133.924L136.768 137.898C137.419 139.246 137.572 140.233 137.261 141.367C136.818 142.988 135.632 143.41 133.85 142.922C132.253 142.485 130.94 141.553 131.738 138.636L134.469 128.659C135.179 126.067 137.117 124.532 140.126 125.355L144.849 126.648ZM137.796 129.868C137.688 130.262 137.825 130.672 138.321 131.132L145.239 137.405C147.253 139.225 148.955 138.098 148.22 136.056L146.083 130.046C145.573 128.638 145.188 128.408 143.798 128.575L139.034 129.162C138.363 129.252 137.929 129.382 137.796 129.868ZM164.928 134.259C165.716 131.016 170.96 132.675 170.028 135.804C169.746 136.747 168.669 137.771 167.736 138.636L159.517 146.389C158.173 147.663 156.343 149.078 154.676 148.622C151.273 147.691 152.235 142.629 155.916 143.637L158.092 144.232C159.666 144.663 159.717 143.931 159.497 143.373L154.978 131.884C154.564 130.85 153.559 131.247 153.649 132.192L153.949 135.186C154.072 136.463 153.571 137.023 152.76 137.075C152.405 137.102 151.873 136.682 151.802 135.941C151.57 133.514 153.408 128.618 156.788 129.543C158.107 129.904 158.555 130.723 159.174 132.46L161.99 140.447C162.527 141.938 163.235 141.26 163.415 140.513L164.928 134.259Z" fill="white"/>
</svg>
