<svg width="262" height="262" viewBox="0 0 262 262" fill="none" xmlns="http://www.w3.org/2000/svg">
<path d="M158.402 27.9667L169.121 71.8877L213.604 63.8152L196.459 105.648L237.192 125.264L198.733 149.03L220.157 188.842L175.073 185.463L169.004 230.264L134.517 201.032L103.274 233.709L92.5554 189.788L48.0721 197.86L65.2168 156.028L24.4841 136.412L62.9432 112.645L41.5197 72.8338L86.6032 76.2123L92.6719 31.4115L127.159 60.6442L158.402 27.9667Z" fill="#FFB7F8"/>
<path d="M94.8347 133.182C88.4519 131.471 86.7141 126.165 88.265 120.377C89.9897 113.94 95.5834 110.482 101.804 112.149C106.997 113.54 109.191 117.577 108.248 121.093C107.741 122.987 106.459 124.527 103.78 123.49C101.573 122.638 102.204 120.285 102.887 118.816L104.035 116.37C104.578 115.211 104.119 114.218 102.672 114.642L92.5159 117.603C91.2872 117.969 90.9722 118.928 92.0211 119.557L96.5271 122.214C98.3024 123.269 98.449 125.86 95.851 126.468L94.1533 126.854C89.8306 127.84 93.3679 133.571 96.5973 131.364L101.819 127.777C104.589 125.881 106.801 128.01 106.272 129.985C105.634 132.365 99.9735 134.558 94.8347 133.182ZM117.264 139.192C110.99 137.51 108.668 132.975 110.567 125.889C112.466 118.803 116.715 116.144 122.989 117.825C129.291 119.514 131.641 123.941 129.743 131.027C127.844 138.113 123.566 140.88 117.264 139.192ZM127.806 130.247C129.023 129.385 129.079 128.095 127.918 127.234L118.769 120.376C116.838 118.931 114.757 119.881 114.86 122.633L115.388 135.268C115.444 136.791 117.001 137.903 118.355 136.962L127.806 130.247ZM146.549 124.573C152.472 126.16 154.312 129.784 152.841 135.274C151.754 139.331 149.231 141.931 145.148 140.836C142.822 140.213 141.479 138.839 140.305 135.973L138.289 131.056C137.845 130.009 136.588 129.615 135.503 130.31C134.556 130.925 134.372 132.151 134.865 133.124L137.192 137.748C137.96 139.316 138.144 140.467 137.789 141.792C137.282 143.686 135.902 144.185 133.819 143.627C131.953 143.127 130.416 142.049 131.329 138.641L134.452 126.984C135.264 123.955 137.515 122.152 141.031 123.094L146.549 124.573ZM138.341 128.374C138.218 128.834 138.38 129.312 138.962 129.845L147.071 137.119C149.433 139.231 151.411 137.906 150.541 135.527L148.01 128.53C147.406 126.89 146.956 126.624 145.336 126.828L139.781 127.542C138.998 127.652 138.493 127.806 138.341 128.374ZM170.021 133.326C170.921 129.538 177.049 131.441 175.982 135.097C175.658 136.199 174.408 137.4 173.325 138.415L163.785 147.512C162.225 149.007 160.099 150.669 158.151 150.147C154.176 149.082 155.267 143.171 159.567 144.323L162.109 145.004C163.948 145.497 164.004 144.642 163.743 143.993L158.398 130.618C157.909 129.414 156.74 129.883 156.85 130.986L157.22 134.476C157.371 135.966 156.79 136.622 155.844 136.687C155.43 136.721 154.806 136.235 154.719 135.371C154.433 132.541 156.547 126.817 160.496 127.875C162.037 128.288 162.565 129.241 163.298 131.264L166.633 140.564C167.269 142.3 168.091 141.505 168.296 140.633L170.021 133.326Z" fill="white"/>
</svg>
