<svg width="1292" height="892" viewBox="0 0 1292 892" fill="none" xmlns="http://www.w3.org/2000/svg">
<circle cx="332" cy="563" r="10" fill="#FF8A00"/>
<circle cx="247" cy="163" r="10" transform="rotate(90 247 163)" fill="#FF8A00"/>
<circle cx="297" cy="310" r="10" fill="#FF8A00"/>
<circle cx="692" cy="330" r="10" fill="#FF8A00"/>
<circle cx="522" cy="170" r="10" fill="#FF8A00"/>
<circle cx="412" cy="758" r="10" fill="#FF8A00"/>
<circle cx="33" cy="107" r="10" transform="rotate(90 33 107)" fill="#FF8A00"/>
<circle cx="295" cy="683" r="10" fill="#FF8A00"/>
<circle cx="647" cy="538" r="10" fill="#FF8A00"/>
<circle cx="787" cy="396" r="10" fill="#FF8A00"/>
<circle cx="862" cy="264" r="10" fill="#FF8A00"/>
<circle cx="607" cy="58" r="10" fill="#FF8A00"/>
<circle cx="927" cy="122" r="10" fill="#FF8A00"/>
<circle cx="669" cy="881" r="10" fill="#FF8A00"/>
<circle cx="35" cy="453" r="10" transform="rotate(90 35 453)" fill="#FF8A00"/>
<circle cx="567" cy="292" r="10" fill="#FF8A00"/>
<circle cx="63" cy="593" r="10" transform="rotate(90 63 593)" fill="#FF8A00"/>
<circle cx="662" cy="708" r="10" fill="#FF8A00"/>
<circle cx="221" cy="563" r="10" transform="rotate(90 221 563)" fill="#FF8A00"/>
<circle cx="792" cy="713" r="10" fill="#FF8A00"/>
<circle cx="747" cy="508" r="10" fill="#FF8A00"/>
<circle cx="912" cy="502" r="10" fill="#FF8A00"/>
<circle cx="920" cy="345" r="10" fill="#FF8A00"/>
<circle cx="1256" cy="847" r="10" fill="#FF8A00"/>
<circle cx="1087" cy="166" r="10" fill="#FF8A00"/>
<circle cx="967" cy="882" r="10" fill="#FF8A00"/>
<circle cx="63" cy="773" r="10" transform="rotate(90 63 773)" fill="#FF8A00"/>
<circle cx="1091" cy="866" r="10" fill="#FF8A00"/>
<circle cx="158" cy="836" r="10" transform="rotate(90 158 836)" fill="#FF8A00"/>
<circle cx="1169" cy="693" r="10" fill="#FF8A00"/>
<circle cx="1028" cy="754" r="10" fill="#FF8A00"/>
<circle cx="1219" cy="502" r="10" fill="#FF8A00"/>
<circle cx="1282" cy="407" r="10" fill="#FF8A00"/>
<circle cx="295" cy="798" r="10" fill="#FF8A00"/>
<circle cx="267" cy="445" r="10" fill="#FF8A00"/>
<circle cx="387" cy="234" r="10" fill="#FF8A00"/>
<circle cx="442" cy="58" r="10" fill="#FF8A00"/>
<circle cx="427" cy="634" r="10" fill="#FF8A00"/>
<circle cx="452" cy="475" r="10" fill="#FF8A00"/>
<circle cx="567" cy="426" r="10" fill="#FF8A00"/>
<circle cx="552" cy="610" r="10" fill="#FF8A00"/>
<circle cx="707" cy="218" r="10" fill="#FF8A00"/>
<circle cx="777" cy="114" r="10" fill="#FF8A00"/>
<circle cx="847" cy="10" r="10" fill="#FF8A00"/>
<circle cx="452" cy="858" r="10" fill="#FF8A00"/>
<circle cx="147" cy="373" r="10" transform="rotate(90 147 373)" fill="#FF8A00"/>
<circle cx="567" cy="788" r="10" fill="#FF8A00"/>
<circle cx="437" cy="337" r="10" transform="rotate(90 437 337)" fill="#FF8A00"/>
<circle cx="822" cy="604" r="10" fill="#FF8A00"/>
<circle cx="10" cy="181" r="10" fill="#FF8A00"/>
<circle cx="107" cy="265" r="10" fill="#FF8A00"/>
<circle cx="1241" cy="99" r="10" fill="#FF8A00"/>
<circle cx="222" cy="43" r="10" fill="#FF8A00"/>
<circle cx="1037" cy="280" r="10" fill="#FF8A00"/>
<circle cx="1007" cy="54" r="10" fill="#FF8A00"/>
<circle cx="847" cy="828" r="10" fill="#FF8A00"/>
<circle cx="175" cy="693" r="10" transform="rotate(90 175 693)" fill="#FF8A00"/>
<circle cx="927" cy="683" r="10" fill="#FF8A00"/>
<circle cx="1013" cy="580" r="10" fill="#FF8A00"/>
<circle cx="1022" cy="428" r="10" fill="#FF8A00"/>
<circle cx="1139" cy="390" r="10" fill="#FF8A00"/>
<circle cx="1187" cy="277" r="10" fill="#FF8A00"/>
</svg>
