<svg width="1269" height="844" viewBox="0 0 1269 844" fill="none" xmlns="http://www.w3.org/2000/svg">
<path d="M329 564C346.175 569.904 331.388 588.129 319 584" stroke="#0D00FF" stroke-width="5" stroke-linecap="round"/>
<path d="M99 207C97.9497 210.413 97.4983 213.512 97 217" stroke="#0D00FF" stroke-width="5" stroke-linecap="round"/>
<path d="M3 163C12.3023 165.462 21.0009 167.667 29 173" stroke="#0D00FF" stroke-width="5" stroke-linecap="round"/>
<path d="M164.13 151C163.354 140.52 154.386 114.744 162.13 107" stroke="#0D00FF" stroke-width="5" stroke-linecap="round"/>
<path d="M363 99H385" stroke="#0D00FF" stroke-width="5" stroke-linecap="round"/>
<path d="M731 59C725.516 52.2967 722.471 42.8089 719 35" stroke="#0D00FF" stroke-width="5" stroke-linecap="round"/>
<path d="M625 27C622.486 24.7654 620.254 25 617 25" stroke="#0D00FF" stroke-width="5" stroke-linecap="round"/>
<path d="M499 73C502.917 77.6512 504.392 81.1604 509 85" stroke="#0D00FF" stroke-width="5" stroke-linecap="round"/>
<path d="M396 237C402.142 238.516 423.034 249.31 429.111 246.111C434.459 243.296 433.539 230.074 434 225" stroke="#0D00FF" stroke-width="5" stroke-linecap="round"/>
<path d="M169 423C178.357 431.806 183 435.857 183 451" stroke="#0D00FF" stroke-width="5" stroke-linecap="round"/>
<path d="M87 609C84.8133 615.651 82.8351 622.271 81 629" stroke="#0D00FF" stroke-width="5" stroke-linecap="round"/>
<path d="M361 681C358.133 685.3 359.902 690.295 358.333 695C355.423 703.73 343.944 709.792 337 715" stroke="#0D00FF" stroke-width="5" stroke-linecap="round"/>
<path d="M499 691C509.551 695.924 520.318 700.371 531 705" stroke="#0D00FF" stroke-width="5" stroke-linecap="round"/>
<path d="M887 547C902.956 550.055 918.957 552.467 935 555" stroke="#0D00FF" stroke-width="5" stroke-linecap="round"/>
<path d="M861 345H875" stroke="#0D00FF" stroke-width="5" stroke-linecap="round"/>
<path d="M233 345C248.061 352.881 259.578 360.626 271 373" stroke="#0D00FF" stroke-width="5" stroke-linecap="round"/>
<path d="M621 336V354" stroke="#0D00FF" stroke-width="5" stroke-linecap="round"/>
<path d="M899 211C901.331 218.284 899.867 219.322 895 225" stroke="#0D00FF" stroke-width="5" stroke-linecap="round"/>
<path d="M969 107C974.359 115.985 979.39 125.269 985.667 133.667C994.545 145.545 1002.3 146.972 1013 155" stroke="#0D00FF" stroke-width="5" stroke-linecap="round"/>
<path d="M1128 3C1128 20.1971 1129.4 36.0828 1132 53" stroke="#0D00FF" stroke-width="5" stroke-linecap="round"/>
<path d="M1263 124C1266.6 136.005 1268.63 144.698 1255.89 152C1239.16 161.587 1219.4 163.722 1201 168" stroke="#0D00FF" stroke-width="5" stroke-linecap="round"/>
<path d="M1203 323L1199 325" stroke="#0D00FF" stroke-width="5" stroke-linecap="round"/>
<path d="M662.859 183C653.735 212.543 679.972 213.186 702.859 217" stroke="#0D00FF" stroke-width="5" stroke-linecap="round"/>
<path d="M1061 491C1070.82 507.363 1086.75 519.859 1105 525.889C1138.14 536.838 1163.62 526.592 1195 519" stroke="#0D00FF" stroke-width="5" stroke-linecap="round"/>
<path d="M1128 797C1124.71 804.188 1119.08 803 1112 803" stroke="#0D00FF" stroke-width="5" stroke-linecap="round"/>
<path d="M731 741C732.728 743.938 734.444 744.955 737 747" stroke="#0D00FF" stroke-width="5" stroke-linecap="round"/>
<path d="M887 691C899.25 699.481 923.636 692.084 937 691" stroke="#0D00FF" stroke-width="5" stroke-linecap="round"/>
<path d="M655 555C640.095 582.1 620.136 571.284 595 565" stroke="#0D00FF" stroke-width="5" stroke-linecap="round"/>
<path d="M159 779C171.036 781.507 182.57 790.837 193 797" stroke="#0D00FF" stroke-width="5" stroke-linecap="round"/>
<path d="M533 815C532.577 827.703 534.294 838.046 521 841" stroke="#0D00FF" stroke-width="5" stroke-linecap="round"/>
<path d="M479 427V443" stroke="#0D00FF" stroke-width="5" stroke-linecap="round"/>
</svg>
