<svg width="1395" height="955" viewBox="0 0 1395 955" fill="none" xmlns="http://www.w3.org/2000/svg">
<path d="M255.853 104.869C239.111 104.869 223.435 121.052 232.12 140.746" stroke="#1400FF" stroke-width="16" stroke-linecap="round"/>
<path d="M363.485 245.986C346.743 245.986 331.067 262.17 339.752 281.863" stroke="#1400FF" stroke-width="16" stroke-linecap="round"/>
<path d="M465.735 411.619C448.993 411.619 433.317 427.803 442.002 447.497" stroke="#1400FF" stroke-width="16" stroke-linecap="round"/>
<path d="M565.594 209.511C548.851 209.511 533.175 225.695 541.86 245.388" stroke="#1400FF" stroke-width="16" stroke-linecap="round"/>
<path d="M706.113 310.565C689.37 310.565 673.695 326.749 682.38 346.442" stroke="#1400FF" stroke-width="16" stroke-linecap="round"/>
<path d="M791.022 141.942C774.28 141.942 758.604 158.126 767.289 177.819" stroke="#1400FF" stroke-width="16" stroke-linecap="round"/>
<path d="M614.028 483.972C597.285 483.972 581.61 500.156 590.295 519.849" stroke="#1400FF" stroke-width="16" stroke-linecap="round"/>
<path d="M239.708 413.413C222.966 413.413 207.29 429.597 215.975 449.291" stroke="#1400FF" stroke-width="16" stroke-linecap="round"/>
<path d="M468.725 187.386C451.982 187.386 436.307 203.57 444.992 223.264" stroke="#1400FF" stroke-width="16" stroke-linecap="round"/>
<path d="M471.117 65.4037C454.374 65.4037 438.699 81.5875 447.384 101.281" stroke="#1400FF" stroke-width="16" stroke-linecap="round"/>
<path d="M667.844 44.4752C651.101 44.4752 635.426 60.659 644.111 80.3525" stroke="#1400FF" stroke-width="16" stroke-linecap="round"/>
<path d="M801.786 447.497C785.043 447.497 769.368 463.68 778.053 483.374" stroke="#1400FF" stroke-width="16" stroke-linecap="round"/>
<path d="M280.472 153.901C284.677 155.529 288.454 157.775 292.431 159.88" stroke="#1400FF" stroke-width="16" stroke-linecap="round"/>
<path d="M315.751 199.345C319.957 200.973 323.734 203.22 327.71 205.325" stroke="#1400FF" stroke-width="16" stroke-linecap="round"/>
<path d="M423.383 340.463C427.588 342.091 431.365 344.337 435.342 346.442" stroke="#1400FF" stroke-width="16" stroke-linecap="round"/>
<path d="M565.696 125.199C569.901 126.827 573.678 129.073 577.655 131.179" stroke="#1400FF" stroke-width="16" stroke-linecap="round"/>
<path d="M658.379 263.925C662.584 265.553 666.361 267.799 670.338 269.904" stroke="#1400FF" stroke-width="16" stroke-linecap="round"/>
<path d="M743.288 95.3014C747.494 96.9294 751.271 99.1757 755.247 101.281" stroke="#1400FF" stroke-width="16" stroke-linecap="round"/>
<path d="M306.781 417.001C310.987 418.629 314.764 420.875 318.74 422.981" stroke="#1400FF" stroke-width="16" stroke-linecap="round"/>
<path d="M167.458 505.498C171.664 507.126 175.441 509.373 179.417 511.478" stroke="#1400FF" stroke-width="16" stroke-linecap="round"/>
<path d="M35.3101 177.819C39.5156 179.447 43.2926 181.693 47.2692 183.799" stroke="#1400FF" stroke-width="16" stroke-linecap="round"/>
<path d="M423.383 18.7632C427.588 20.3911 431.365 22.6375 435.342 24.7427" stroke="#1400FF" stroke-width="16" stroke-linecap="round"/>
<path d="M403.052 279.471C407.258 281.099 411.035 283.346 415.011 285.451" stroke="#1400FF" stroke-width="16" stroke-linecap="round"/>
<path d="M754.052 400.856C758.257 402.484 762.034 404.731 766.011 406.836" stroke="#1400FF" stroke-width="16" stroke-linecap="round"/>
<path d="M155.499 71.9811C146.562 71.4476 127.371 69.2888 125.07 81.947C123.234 92.0434 133.875 98.1837 141.48 101.048C150.127 104.305 158.522 103.955 167.458 104.869" stroke="#1400FF" stroke-width="16" stroke-linecap="round"/>
<path d="M32.5348 21.7863C27.2295 28.9981 14.987 43.9334 24.3614 52.7452C31.8386 59.7736 42.7763 54.1789 49.3144 49.3521C56.748 43.8642 61.0165 36.6269 66.6405 29.6227" stroke="#1400FF" stroke-width="16" stroke-linecap="round"/>
<path d="M370.762 354.216C361.825 353.682 342.635 351.523 340.333 364.182C338.498 374.278 349.139 380.418 356.744 383.283C365.391 386.54 373.786 386.189 382.722 387.103" stroke="#1400FF" stroke-width="16" stroke-linecap="round"/>
<path d="M799.041 285.926C790.104 285.393 770.913 283.234 768.612 295.892C766.776 305.988 777.417 312.129 785.022 314.993C793.669 318.25 802.064 317.9 811 318.814" stroke="#1400FF" stroke-width="16" stroke-linecap="round"/>
<path d="M605.759 277.678C596.821 277.144 577.631 274.985 575.329 287.643C573.494 297.74 584.135 303.88 591.74 306.745C600.387 310.002 608.782 309.651 617.718 310.565" stroke="#1400FF" stroke-width="16" stroke-linecap="round"/>
<path d="M690.669 109.054C681.732 108.521 662.541 106.362 660.239 119.02C658.404 129.117 669.045 135.257 676.65 138.122C685.297 141.379 693.692 141.028 702.628 141.942" stroke="#1400FF" stroke-width="16" stroke-linecap="round"/>
<path d="M540.127 431.827C531.19 431.294 511.999 429.135 509.697 441.793C507.862 451.889 518.503 458.03 526.108 460.894C534.755 464.151 543.15 463.801 552.086 464.715" stroke="#1400FF" stroke-width="16" stroke-linecap="round"/>
<path d="M193.313 346.918C184.376 346.384 165.185 344.225 162.884 356.884C161.048 366.98 171.689 373.12 179.294 375.985C187.941 379.242 196.336 378.891 205.272 379.805" stroke="#1400FF" stroke-width="16" stroke-linecap="round"/>
<path d="M77.7649 238.213C68.8278 237.679 49.6372 235.52 47.3357 248.178C45.5 258.275 56.141 264.415 63.7462 267.28C72.393 270.537 80.788 270.186 89.724 271.1" stroke="#1400FF" stroke-width="16" stroke-linecap="round"/>
<path d="M370.763 32.5161C361.826 31.9826 342.635 29.8238 340.334 42.4821C338.498 52.5784 349.139 58.7188 356.744 61.5834C365.391 64.8404 373.786 64.4897 382.722 65.4037" stroke="#1400FF" stroke-width="16" stroke-linecap="round"/>
<path d="M567.49 11.5877C558.553 11.0541 539.362 8.89537 537.061 21.5536C535.225 31.65 545.866 37.7903 553.471 40.6549C562.118 43.9119 570.513 43.5613 579.449 44.4752" stroke="#1400FF" stroke-width="16" stroke-linecap="round"/>
<path d="M701.432 414.609C692.495 414.075 673.304 411.917 671.003 424.575C669.167 434.671 679.808 440.812 687.413 443.676C696.06 446.933 704.455 446.583 713.391 447.497" stroke="#1400FF" stroke-width="16" stroke-linecap="round"/>
<path d="M107.662 140.746C102.742 148.385 95.033 147.864 86.7339 148.519" stroke="#1400FF" stroke-width="16" stroke-linecap="round"/>
<path d="M215.294 281.863C210.374 289.503 202.665 288.982 194.366 289.637" stroke="#1400FF" stroke-width="16" stroke-linecap="round"/>
<path d="M269.11 223.862C264.19 231.501 256.481 230.98 248.182 231.635" stroke="#1400FF" stroke-width="16" stroke-linecap="round"/>
<path d="M498.725 283.657C493.805 291.296 486.095 290.775 477.796 291.431" stroke="#1400FF" stroke-width="16" stroke-linecap="round"/>
<path d="M557.923 346.442C553.002 354.082 545.293 353.561 536.994 354.216" stroke="#1400FF" stroke-width="16" stroke-linecap="round"/>
<path d="M642.832 177.819C637.912 185.458 630.202 184.937 621.903 185.593" stroke="#1400FF" stroke-width="16" stroke-linecap="round"/>
<path d="M465.838 519.849C460.917 527.488 453.208 526.967 444.909 527.623" stroke="#1400FF" stroke-width="16" stroke-linecap="round"/>
<path d="M91.5178 449.291C86.5976 456.93 78.8884 456.409 70.5894 457.064" stroke="#1400FF" stroke-width="16" stroke-linecap="round"/>
<path d="M29.9284 306.977C25.0082 314.617 17.2991 314.096 9 314.751" stroke="#1400FF" stroke-width="16" stroke-linecap="round"/>
<path d="M322.926 101.281C318.006 108.92 310.297 108.399 301.998 109.054" stroke="#1400FF" stroke-width="16" stroke-linecap="round"/>
<path d="M509.488 124.601C504.568 132.24 496.859 131.719 488.56 132.375" stroke="#1400FF" stroke-width="16" stroke-linecap="round"/>
<path d="M627.883 393.083C622.963 400.722 615.254 400.201 606.955 400.856" stroke="#1400FF" stroke-width="16" stroke-linecap="round"/>
<path d="M155.949 227.725C151.991 219.094 148.354 209.343 154.953 200.851C159.858 194.537 176.772 184.167 179.668 197.329C180.536 201.272 180.269 205.206 180.067 209.189C179.904 212.383 178.243 219.174 181.528 221.746C188.399 227.125 199.314 219.201 204.982 215.766" stroke="#1400FF" stroke-width="16" stroke-linecap="round"/>
<path d="M252.818 340.739C248.859 332.107 245.223 322.356 251.821 313.864C256.727 307.55 273.641 297.181 276.537 310.343C277.404 314.286 277.138 318.219 276.935 322.202C276.773 325.397 275.112 332.187 278.397 334.759C285.268 340.138 296.183 332.215 301.85 328.78" stroke="#1400FF" stroke-width="16" stroke-linecap="round"/>
<path d="M365.832 520.125C361.873 511.494 358.237 501.743 364.835 493.251C369.741 486.937 386.655 476.567 389.55 489.729C390.418 493.672 390.152 497.606 389.949 501.589C389.787 504.783 388.125 511.574 391.411 514.146C398.282 519.525 409.196 511.601 414.864 508.166" stroke="#1400FF" stroke-width="16" stroke-linecap="round"/>
<path d="M258.2 538.064C254.241 529.432 250.605 519.681 257.203 511.189C262.109 504.875 279.023 494.506 281.919 507.668C282.786 511.611 282.52 515.544 282.317 519.527C282.155 522.722 280.494 529.512 283.779 532.084C290.65 537.464 301.564 529.54 307.232 526.105" stroke="#1400FF" stroke-width="16" stroke-linecap="round"/>
<path d="M244.447 44.7513C240.488 36.1198 236.852 26.3687 243.45 17.8766C248.356 11.5629 265.27 1.19336 268.166 14.3553C269.033 18.2981 268.767 22.2316 268.564 26.2147C268.402 29.4094 266.741 36.1997 270.026 38.7718C276.897 44.1509 287.812 36.2271 293.479 32.7922" stroke="#1400FF" stroke-width="16" stroke-linecap="round"/>
<path d="M680.356 236.695C676.398 228.063 672.761 218.312 679.359 209.82C684.265 203.506 701.179 193.137 704.075 206.299C704.942 210.242 704.676 214.175 704.473 218.158C704.311 221.353 702.65 228.143 705.935 230.715C712.806 236.094 723.721 228.171 729.388 224.736" stroke="#1400FF" stroke-width="16" stroke-linecap="round"/>
<path d="M503.361 578.725C499.403 570.093 495.767 560.342 502.365 551.85C507.27 545.536 524.185 535.167 527.08 548.329C527.948 552.272 527.681 556.205 527.479 560.188C527.316 563.383 525.655 570.173 528.941 572.745C535.811 578.124 546.726 570.201 552.394 566.766" stroke="#1400FF" stroke-width="16" stroke-linecap="round"/>
<path d="M37.5542 551.817C33.5958 543.185 29.9594 533.434 36.5576 524.942C41.4632 518.628 58.3775 508.259 61.2731 521.421C62.1405 525.364 61.8742 529.297 61.6717 533.28C61.5093 536.475 59.8481 543.265 63.1334 545.837C70.0043 551.216 80.9189 543.293 86.5865 539.858" stroke="#1400FF" stroke-width="16" stroke-linecap="round"/>
<path d="M67.4522 365.853C63.4938 357.222 59.8573 347.47 66.4556 338.978C71.3612 332.665 88.2754 322.295 91.171 335.457C92.0385 339.4 91.7722 343.333 91.5697 347.316C91.4072 350.511 89.7461 357.301 93.0313 359.873C99.9022 365.253 110.817 357.329 116.484 353.894" stroke="#1400FF" stroke-width="16" stroke-linecap="round"/>
<path d="M368.223 172.116C364.265 163.484 360.628 153.733 367.227 145.241C372.132 138.927 389.046 128.558 391.942 141.72C392.809 145.663 392.543 149.596 392.341 153.579C392.178 156.774 390.517 163.564 393.802 166.136C400.673 171.515 411.588 163.591 417.255 160.157" stroke="#1400FF" stroke-width="16" stroke-linecap="round"/>
<path d="M755.698 48.937C751.739 40.3055 748.103 30.5544 754.701 22.0622C759.607 15.7485 776.521 5.37903 779.417 18.5409C780.284 22.4838 780.018 26.4173 779.815 30.4004C779.653 33.595 777.992 40.3854 781.277 42.9574C788.148 48.3366 799.062 40.4128 804.73 36.9779" stroke="#1400FF" stroke-width="16" stroke-linecap="round"/>
<path d="M691.119 542.25C687.16 533.618 683.524 523.867 690.122 515.375C695.028 509.061 711.942 498.692 714.838 511.854C715.705 515.796 715.439 519.73 715.236 523.713C715.074 526.908 713.413 533.698 716.698 536.27C723.569 541.649 734.483 533.725 740.151 530.29" stroke="#1400FF" stroke-width="16" stroke-linecap="round"/>
<path d="M254.853 472.869C238.111 472.869 222.435 489.052 231.12 508.746" stroke="#1400FF" stroke-width="16" stroke-linecap="round"/>
<path d="M362.485 613.986C345.743 613.986 330.067 630.17 338.752 649.863" stroke="#1400FF" stroke-width="16" stroke-linecap="round"/>
<path d="M464.735 779.619C447.993 779.619 432.317 795.803 441.002 815.497" stroke="#1400FF" stroke-width="16" stroke-linecap="round"/>
<path d="M564.594 577.511C547.851 577.511 532.175 593.695 540.86 613.388" stroke="#1400FF" stroke-width="16" stroke-linecap="round"/>
<path d="M705.113 678.565C688.37 678.565 672.695 694.749 681.38 714.442" stroke="#1400FF" stroke-width="16" stroke-linecap="round"/>
<path d="M790.022 509.942C773.28 509.942 757.604 526.126 766.289 545.819" stroke="#1400FF" stroke-width="16" stroke-linecap="round"/>
<path d="M613.028 851.972C596.285 851.972 580.61 868.156 589.295 887.849" stroke="#1400FF" stroke-width="16" stroke-linecap="round"/>
<path d="M238.708 781.413C221.966 781.413 206.29 797.597 214.975 817.291" stroke="#1400FF" stroke-width="16" stroke-linecap="round"/>
<path d="M467.725 555.386C450.982 555.386 435.307 571.57 443.992 591.264" stroke="#1400FF" stroke-width="16" stroke-linecap="round"/>
<path d="M470.117 433.404C453.374 433.404 437.699 449.587 446.384 469.281" stroke="#1400FF" stroke-width="16" stroke-linecap="round"/>
<path d="M666.844 412.475C650.101 412.475 634.426 428.659 643.111 448.353" stroke="#1400FF" stroke-width="16" stroke-linecap="round"/>
<path d="M800.786 815.497C784.043 815.497 768.368 831.68 777.053 851.374" stroke="#1400FF" stroke-width="16" stroke-linecap="round"/>
<path d="M279.472 521.901C283.677 523.529 287.454 525.775 291.431 527.88" stroke="#1400FF" stroke-width="16" stroke-linecap="round"/>
<path d="M314.751 567.345C318.957 568.973 322.734 571.22 326.71 573.325" stroke="#1400FF" stroke-width="16" stroke-linecap="round"/>
<path d="M422.383 708.463C426.588 710.091 430.365 712.337 434.342 714.442" stroke="#1400FF" stroke-width="16" stroke-linecap="round"/>
<path d="M564.696 493.199C568.901 494.827 572.678 497.073 576.655 499.179" stroke="#1400FF" stroke-width="16" stroke-linecap="round"/>
<path d="M657.379 631.925C661.584 633.553 665.361 635.799 669.338 637.904" stroke="#1400FF" stroke-width="16" stroke-linecap="round"/>
<path d="M742.288 463.301C746.494 464.929 750.271 467.176 754.247 469.281" stroke="#1400FF" stroke-width="16" stroke-linecap="round"/>
<path d="M305.781 785.001C309.987 786.629 313.764 788.875 317.74 790.981" stroke="#1400FF" stroke-width="16" stroke-linecap="round"/>
<path d="M166.458 873.498C170.664 875.126 174.441 877.373 178.417 879.478" stroke="#1400FF" stroke-width="16" stroke-linecap="round"/>
<path d="M34.3101 545.819C38.5156 547.447 42.2926 549.693 46.2692 551.799" stroke="#1400FF" stroke-width="16" stroke-linecap="round"/>
<path d="M422.383 386.763C426.588 388.391 430.365 390.637 434.342 392.743" stroke="#1400FF" stroke-width="16" stroke-linecap="round"/>
<path d="M402.052 647.471C406.258 649.099 410.035 651.346 414.011 653.451" stroke="#1400FF" stroke-width="16" stroke-linecap="round"/>
<path d="M753.052 768.856C757.257 770.484 761.034 772.731 765.011 774.836" stroke="#1400FF" stroke-width="16" stroke-linecap="round"/>
<path d="M154.499 439.981C145.562 439.448 126.371 437.289 124.07 449.947C122.234 460.043 132.875 466.184 140.48 469.048C149.127 472.305 157.522 471.955 166.458 472.869" stroke="#1400FF" stroke-width="16" stroke-linecap="round"/>
<path d="M31.5348 389.786C26.2295 396.998 13.987 411.933 23.3614 420.745C30.8386 427.774 41.7763 422.179 48.3144 417.352C55.748 411.864 60.0165 404.627 65.6405 397.623" stroke="#1400FF" stroke-width="16" stroke-linecap="round"/>
<path d="M369.762 722.216C360.825 721.682 341.635 719.523 339.333 732.182C337.498 742.278 348.139 748.418 355.744 751.283C364.391 754.54 372.786 754.189 381.722 755.103" stroke="#1400FF" stroke-width="16" stroke-linecap="round"/>
<path d="M798.041 653.926C789.104 653.393 769.913 651.234 767.612 663.892C765.776 673.988 776.417 680.129 784.022 682.993C792.669 686.25 801.064 685.9 810 686.814" stroke="#1400FF" stroke-width="16" stroke-linecap="round"/>
<path d="M604.759 645.678C595.821 645.144 576.631 642.985 574.329 655.643C572.494 665.74 583.135 671.88 590.74 674.745C599.387 678.002 607.782 677.651 616.718 678.565" stroke="#1400FF" stroke-width="16" stroke-linecap="round"/>
<path d="M689.669 477.054C680.732 476.521 661.541 474.362 659.239 487.02C657.404 497.117 668.045 503.257 675.65 506.122C684.297 509.379 692.692 509.028 701.628 509.942" stroke="#1400FF" stroke-width="16" stroke-linecap="round"/>
<path d="M539.127 799.827C530.19 799.294 510.999 797.135 508.697 809.793C506.862 819.889 517.503 826.03 525.108 828.894C533.755 832.151 542.15 831.801 551.086 832.715" stroke="#1400FF" stroke-width="16" stroke-linecap="round"/>
<path d="M192.313 714.918C183.376 714.384 164.185 712.225 161.884 724.884C160.048 734.98 170.689 741.12 178.294 743.985C186.941 747.242 195.336 746.891 204.272 747.805" stroke="#1400FF" stroke-width="16" stroke-linecap="round"/>
<path d="M76.7649 606.213C67.8278 605.679 48.6372 603.52 46.3357 616.178C44.5 626.275 55.141 632.415 62.7462 635.28C71.393 638.537 79.788 638.186 88.724 639.1" stroke="#1400FF" stroke-width="16" stroke-linecap="round"/>
<path d="M369.763 400.516C360.826 399.983 341.635 397.824 339.334 410.482C337.498 420.578 348.139 426.719 355.744 429.583C364.391 432.84 372.786 432.49 381.722 433.404" stroke="#1400FF" stroke-width="16" stroke-linecap="round"/>
<path d="M566.49 379.588C557.553 379.054 538.362 376.895 536.061 389.554C534.225 399.65 544.866 405.79 552.471 408.655C561.118 411.912 569.513 411.561 578.449 412.475" stroke="#1400FF" stroke-width="16" stroke-linecap="round"/>
<path d="M700.432 782.609C691.495 782.075 672.304 779.917 670.003 792.575C668.167 802.671 678.808 808.812 686.413 811.676C695.06 814.933 703.455 814.583 712.391 815.497" stroke="#1400FF" stroke-width="16" stroke-linecap="round"/>
<path d="M106.662 508.746C101.742 516.385 94.033 515.864 85.7339 516.519" stroke="#1400FF" stroke-width="16" stroke-linecap="round"/>
<path d="M214.294 649.863C209.374 657.503 201.665 656.982 193.366 657.637" stroke="#1400FF" stroke-width="16" stroke-linecap="round"/>
<path d="M268.11 591.862C263.19 599.501 255.481 598.98 247.182 599.635" stroke="#1400FF" stroke-width="16" stroke-linecap="round"/>
<path d="M497.725 651.657C492.805 659.296 485.095 658.775 476.796 659.431" stroke="#1400FF" stroke-width="16" stroke-linecap="round"/>
<path d="M556.923 714.442C552.002 722.082 544.293 721.561 535.994 722.216" stroke="#1400FF" stroke-width="16" stroke-linecap="round"/>
<path d="M641.832 545.819C636.912 553.458 629.202 552.937 620.903 553.593" stroke="#1400FF" stroke-width="16" stroke-linecap="round"/>
<path d="M464.838 887.849C459.917 895.488 452.208 894.967 443.909 895.623" stroke="#1400FF" stroke-width="16" stroke-linecap="round"/>
<path d="M90.5178 817.291C85.5976 824.93 77.8884 824.409 69.5894 825.064" stroke="#1400FF" stroke-width="16" stroke-linecap="round"/>
<path d="M28.9284 674.977C24.0082 682.617 16.2991 682.096 8 682.751" stroke="#1400FF" stroke-width="16" stroke-linecap="round"/>
<path d="M321.926 469.281C317.006 476.92 309.297 476.399 300.998 477.054" stroke="#1400FF" stroke-width="16" stroke-linecap="round"/>
<path d="M508.488 492.601C503.568 500.24 495.859 499.719 487.56 500.375" stroke="#1400FF" stroke-width="16" stroke-linecap="round"/>
<path d="M626.883 761.083C621.963 768.722 614.254 768.201 605.955 768.856" stroke="#1400FF" stroke-width="16" stroke-linecap="round"/>
<path d="M154.949 595.725C150.991 587.094 147.354 577.343 153.953 568.851C158.858 562.537 175.772 552.167 178.668 565.329C179.536 569.272 179.269 573.206 179.067 577.189C178.904 580.383 177.243 587.174 180.528 589.746C187.399 595.125 198.314 587.201 203.982 583.766" stroke="#1400FF" stroke-width="16" stroke-linecap="round"/>
<path d="M251.818 708.739C247.859 700.107 244.223 690.356 250.821 681.864C255.727 675.55 272.641 665.181 275.537 678.343C276.404 682.286 276.138 686.219 275.935 690.202C275.773 693.397 274.112 700.187 277.397 702.759C284.268 708.138 295.183 700.215 300.85 696.78" stroke="#1400FF" stroke-width="16" stroke-linecap="round"/>
<path d="M364.832 888.125C360.873 879.494 357.237 869.743 363.835 861.251C368.741 854.937 385.655 844.567 388.55 857.729C389.418 861.672 389.152 865.606 388.949 869.589C388.787 872.783 387.125 879.574 390.411 882.146C397.282 887.525 408.196 879.601 413.864 876.166" stroke="#1400FF" stroke-width="16" stroke-linecap="round"/>
<path d="M257.2 906.064C253.241 897.432 249.605 887.681 256.203 879.189C261.109 872.875 278.023 862.506 280.919 875.668C281.786 879.611 281.52 883.544 281.317 887.527C281.155 890.722 279.494 897.512 282.779 900.084C289.65 905.464 300.564 897.54 306.232 894.105" stroke="#1400FF" stroke-width="16" stroke-linecap="round"/>
<path d="M243.447 412.751C239.488 404.12 235.852 394.369 242.45 385.877C247.356 379.563 264.27 369.193 267.166 382.355C268.033 386.298 267.767 390.232 267.564 394.215C267.402 397.409 265.741 404.2 269.026 406.772C275.897 412.151 286.812 404.227 292.479 400.792" stroke="#1400FF" stroke-width="16" stroke-linecap="round"/>
<path d="M679.356 604.695C675.398 596.063 671.761 586.312 678.359 577.82C683.265 571.506 700.179 561.137 703.075 574.299C703.942 578.242 703.676 582.175 703.473 586.158C703.311 589.353 701.65 596.143 704.935 598.715C711.806 604.094 722.721 596.171 728.388 592.736" stroke="#1400FF" stroke-width="16" stroke-linecap="round"/>
<path d="M502.361 946.725C498.403 938.093 494.767 928.342 501.365 919.85C506.27 913.536 523.185 903.167 526.08 916.329C526.948 920.272 526.681 924.205 526.479 928.188C526.316 931.383 524.655 938.173 527.941 940.745C534.811 946.124 545.726 938.201 551.394 934.766" stroke="#1400FF" stroke-width="16" stroke-linecap="round"/>
<path d="M36.5542 919.817C32.5958 911.185 28.9594 901.434 35.5576 892.942C40.4632 886.628 57.3775 876.259 60.2731 889.421C61.1405 893.364 60.8742 897.297 60.6717 901.28C60.5093 904.475 58.8481 911.265 62.1334 913.837C69.0043 919.216 79.9189 911.293 85.5865 907.858" stroke="#1400FF" stroke-width="16" stroke-linecap="round"/>
<path d="M66.4522 733.853C62.4938 725.222 58.8573 715.47 65.4556 706.978C70.3612 700.665 87.2754 690.295 90.171 703.457C91.0385 707.4 90.7722 711.333 90.5697 715.316C90.4072 718.511 88.7461 725.301 92.0313 727.873C98.9022 733.253 109.817 725.329 115.484 721.894" stroke="#1400FF" stroke-width="16" stroke-linecap="round"/>
<path d="M367.223 540.116C363.265 531.484 359.628 521.733 366.227 513.241C371.132 506.927 388.046 496.558 390.942 509.72C391.809 513.663 391.543 517.596 391.341 521.579C391.178 524.774 389.517 531.564 392.802 534.136C399.673 539.515 410.588 531.591 416.255 528.157" stroke="#1400FF" stroke-width="16" stroke-linecap="round"/>
<path d="M754.698 416.937C750.739 408.305 747.103 398.554 753.701 390.062C758.607 383.749 775.521 373.379 778.417 386.541C779.284 390.484 779.018 394.417 778.815 398.4C778.653 401.595 776.992 408.385 780.277 410.957C787.148 416.337 798.062 408.413 803.73 404.978" stroke="#1400FF" stroke-width="16" stroke-linecap="round"/>
<path d="M690.119 910.25C686.16 901.618 682.524 891.867 689.122 883.375C694.028 877.061 710.942 866.692 713.838 879.854C714.705 883.796 714.439 887.73 714.236 891.713C714.074 894.908 712.413 901.698 715.698 904.27C722.569 909.649 733.483 901.725 739.151 898.29" stroke="#1400FF" stroke-width="16" stroke-linecap="round"/>
<path d="M1289.86 356.853C1289.86 340.11 1273.67 324.435 1253.98 333.12" stroke="#1400FF" stroke-width="16" stroke-linecap="round"/>
<path d="M1148.74 464.485C1148.74 447.742 1132.55 432.067 1112.86 440.752" stroke="#1400FF" stroke-width="16" stroke-linecap="round"/>
<path d="M983.105 566.735C983.105 549.993 966.921 534.317 947.228 543.002" stroke="#1400FF" stroke-width="16" stroke-linecap="round"/>
<path d="M1185.21 666.594C1185.21 649.851 1169.03 634.175 1149.34 642.86" stroke="#1400FF" stroke-width="16" stroke-linecap="round"/>
<path d="M1084.16 807.113C1084.16 790.37 1067.98 774.695 1048.28 783.38" stroke="#1400FF" stroke-width="16" stroke-linecap="round"/>
<path d="M1252.78 892.023C1252.78 875.28 1236.6 859.604 1216.91 868.289" stroke="#1400FF" stroke-width="16" stroke-linecap="round"/>
<path d="M910.752 715.028C910.752 698.285 894.569 682.61 874.875 691.295" stroke="#1400FF" stroke-width="16" stroke-linecap="round"/>
<path d="M981.312 340.708C981.312 323.966 965.128 308.29 945.434 316.975" stroke="#1400FF" stroke-width="16" stroke-linecap="round"/>
<path d="M1207.34 569.725C1207.34 552.982 1191.15 537.307 1171.46 545.992" stroke="#1400FF" stroke-width="16" stroke-linecap="round"/>
<path d="M1329.32 572.117C1329.32 555.374 1313.14 539.699 1293.44 548.384" stroke="#1400FF" stroke-width="16" stroke-linecap="round"/>
<path d="M1350.25 768.844C1350.25 752.101 1334.07 736.426 1314.37 745.111" stroke="#1400FF" stroke-width="16" stroke-linecap="round"/>
<path d="M947.228 902.786C947.228 886.043 931.044 870.368 911.351 879.053" stroke="#1400FF" stroke-width="16" stroke-linecap="round"/>
<path d="M1240.82 381.471C1239.2 385.677 1236.95 389.454 1234.84 393.431" stroke="#1400FF" stroke-width="16" stroke-linecap="round"/>
<path d="M1195.38 416.751C1193.75 420.956 1191.5 424.733 1189.4 428.71" stroke="#1400FF" stroke-width="16" stroke-linecap="round"/>
<path d="M1054.26 524.383C1052.63 528.588 1050.39 532.365 1048.28 536.342" stroke="#1400FF" stroke-width="16" stroke-linecap="round"/>
<path d="M1269.53 666.696C1267.9 670.901 1265.65 674.678 1263.55 678.655" stroke="#1400FF" stroke-width="16" stroke-linecap="round"/>
<path d="M1130.8 759.379C1129.17 763.584 1126.93 767.361 1124.82 771.338" stroke="#1400FF" stroke-width="16" stroke-linecap="round"/>
<path d="M1299.42 844.288C1297.79 848.494 1295.55 852.271 1293.44 856.247" stroke="#1400FF" stroke-width="16" stroke-linecap="round"/>
<path d="M977.724 407.781C976.096 411.987 973.849 415.764 971.744 419.74" stroke="#1400FF" stroke-width="16" stroke-linecap="round"/>
<path d="M889.226 268.458C887.598 272.664 885.352 276.441 883.247 280.417" stroke="#1400FF" stroke-width="16" stroke-linecap="round"/>
<path d="M1216.91 136.31C1215.28 140.516 1213.03 144.293 1210.93 148.269" stroke="#1400FF" stroke-width="16" stroke-linecap="round"/>
<path d="M1375.96 524.383C1374.33 528.588 1372.09 532.365 1369.98 536.342" stroke="#1400FF" stroke-width="16" stroke-linecap="round"/>
<path d="M1115.25 504.052C1113.62 508.258 1111.38 512.035 1109.27 516.011" stroke="#1400FF" stroke-width="16" stroke-linecap="round"/>
<path d="M993.868 855.052C992.24 859.257 989.994 863.034 987.889 867.011" stroke="#1400FF" stroke-width="16" stroke-linecap="round"/>
<path d="M1322.74 256.499C1323.28 247.562 1325.44 228.371 1312.78 226.07C1302.68 224.234 1296.54 234.875 1293.68 242.48C1290.42 251.127 1290.77 259.522 1289.86 268.458" stroke="#1400FF" stroke-width="16" stroke-linecap="round"/>
<path d="M1372.94 133.535C1365.73 128.23 1350.79 115.987 1341.98 125.362C1334.95 132.839 1340.55 143.776 1345.37 150.315C1350.86 157.748 1358.1 162.017 1365.1 167.641" stroke="#1400FF" stroke-width="16" stroke-linecap="round"/>
<path d="M1040.51 471.763C1041.04 462.825 1043.2 443.635 1030.54 441.333C1020.45 439.498 1014.31 450.139 1011.44 457.744C1008.18 466.391 1008.54 474.786 1007.62 483.722" stroke="#1400FF" stroke-width="16" stroke-linecap="round"/>
<path d="M1108.8 900.041C1109.33 891.104 1111.49 871.913 1098.83 869.612C1088.74 867.776 1082.6 878.417 1079.73 886.022C1076.47 894.669 1076.82 903.064 1075.91 912" stroke="#1400FF" stroke-width="16" stroke-linecap="round"/>
<path d="M1117.05 706.759C1117.58 697.822 1119.74 678.631 1107.08 676.329C1096.98 674.494 1090.84 685.135 1087.98 692.74C1084.72 701.387 1085.07 709.782 1084.16 718.718" stroke="#1400FF" stroke-width="16" stroke-linecap="round"/>
<path d="M1285.67 791.669C1286.2 782.731 1288.36 763.541 1275.7 761.239C1265.61 759.404 1259.47 770.045 1256.6 777.65C1253.35 786.297 1253.7 794.692 1252.78 803.628" stroke="#1400FF" stroke-width="16" stroke-linecap="round"/>
<path d="M962.897 641.126C963.431 632.189 965.59 612.999 952.931 610.697C942.835 608.862 936.695 619.503 933.83 627.108C930.573 635.755 930.924 644.15 930.01 653.086" stroke="#1400FF" stroke-width="16" stroke-linecap="round"/>
<path d="M1047.81 294.313C1048.34 285.376 1050.5 266.185 1037.84 263.884C1027.74 262.048 1021.6 272.689 1018.74 280.294C1015.48 288.941 1015.83 297.336 1014.92 306.272" stroke="#1400FF" stroke-width="16" stroke-linecap="round"/>
<path d="M1156.51 178.765C1157.05 169.828 1159.2 150.637 1146.55 148.336C1136.45 146.5 1130.31 157.141 1127.44 164.746C1124.19 173.393 1124.54 181.788 1123.62 190.724" stroke="#1400FF" stroke-width="16" stroke-linecap="round"/>
<path d="M1362.21 471.763C1362.74 462.826 1364.9 443.635 1352.24 441.334C1342.15 439.498 1336.01 450.139 1333.14 457.744C1329.88 466.391 1330.23 474.786 1329.32 483.722" stroke="#1400FF" stroke-width="16" stroke-linecap="round"/>
<path d="M1383.14 668.49C1383.67 659.553 1385.83 640.362 1373.17 638.061C1363.07 636.225 1356.93 646.866 1354.07 654.471C1350.81 663.118 1351.16 671.513 1350.25 680.449" stroke="#1400FF" stroke-width="16" stroke-linecap="round"/>
<path d="M980.116 802.432C980.649 793.495 982.808 774.304 970.15 772.003C960.053 770.167 953.913 780.808 951.048 788.413C947.791 797.06 948.142 805.455 947.228 814.391" stroke="#1400FF" stroke-width="16" stroke-linecap="round"/>
<path d="M1253.98 208.663C1246.34 203.742 1246.86 196.033 1246.21 187.734" stroke="#1400FF" stroke-width="16" stroke-linecap="round"/>
<path d="M1112.86 316.294C1105.22 311.374 1105.74 303.665 1105.09 295.366" stroke="#1400FF" stroke-width="16" stroke-linecap="round"/>
<path d="M1170.86 370.11C1163.22 365.19 1163.74 357.481 1163.09 349.182" stroke="#1400FF" stroke-width="16" stroke-linecap="round"/>
<path d="M1111.07 599.725C1103.43 594.805 1103.95 587.096 1103.29 578.797" stroke="#1400FF" stroke-width="16" stroke-linecap="round"/>
<path d="M1048.28 658.922C1040.64 654.002 1041.16 646.293 1040.51 637.994" stroke="#1400FF" stroke-width="16" stroke-linecap="round"/>
<path d="M1216.91 743.832C1209.27 738.912 1209.79 731.203 1209.13 722.904" stroke="#1400FF" stroke-width="16" stroke-linecap="round"/>
<path d="M874.875 566.837C867.236 561.917 867.757 554.208 867.102 545.909" stroke="#1400FF" stroke-width="16" stroke-linecap="round"/>
<path d="M945.434 192.518C937.795 187.598 938.316 179.888 937.661 171.589" stroke="#1400FF" stroke-width="16" stroke-linecap="round"/>
<path d="M1087.75 130.928C1080.11 126.008 1080.63 118.299 1079.97 110" stroke="#1400FF" stroke-width="16" stroke-linecap="round"/>
<path d="M1293.44 423.926C1285.8 419.006 1286.33 411.297 1285.67 402.998" stroke="#1400FF" stroke-width="16" stroke-linecap="round"/>
<path d="M1270.12 610.488C1262.48 605.568 1263 597.859 1262.35 589.56" stroke="#1400FF" stroke-width="16" stroke-linecap="round"/>
<path d="M1001.64 728.883C994.002 723.963 994.523 716.254 993.868 707.955" stroke="#1400FF" stroke-width="16" stroke-linecap="round"/>
<path d="M1167 256.949C1175.63 252.991 1185.38 249.355 1193.87 255.953C1200.19 260.858 1210.56 277.773 1197.39 280.668C1193.45 281.536 1189.52 281.27 1185.54 281.067C1182.34 280.905 1175.55 279.243 1172.98 282.529C1167.6 289.4 1175.52 300.314 1178.96 305.982" stroke="#1400FF" stroke-width="16" stroke-linecap="round"/>
<path d="M1053.99 353.818C1062.62 349.86 1072.37 346.223 1080.86 352.822C1087.17 357.727 1097.54 374.641 1084.38 377.537C1080.44 378.404 1076.51 378.138 1072.52 377.936C1069.33 377.773 1062.54 376.112 1059.97 379.397C1054.59 386.268 1062.51 397.183 1065.94 402.85" stroke="#1400FF" stroke-width="16" stroke-linecap="round"/>
<path d="M874.599 466.832C883.231 462.873 892.982 459.237 901.474 465.835C907.788 470.741 918.157 487.655 904.995 490.55C901.052 491.418 897.119 491.152 893.136 490.949C889.941 490.787 883.151 489.125 880.579 492.411C875.2 499.282 883.124 510.196 886.558 515.864" stroke="#1400FF" stroke-width="16" stroke-linecap="round"/>
<path d="M856.661 359.2C865.292 355.241 875.043 351.605 883.536 358.203C889.849 363.109 900.219 380.023 887.057 382.919C883.114 383.786 879.18 383.52 875.197 383.317C872.003 383.155 865.212 381.494 862.64 384.779C857.261 391.65 865.185 402.564 868.62 408.232" stroke="#1400FF" stroke-width="16" stroke-linecap="round"/>
<path d="M1349.97 345.447C1358.6 341.488 1368.36 337.852 1376.85 344.45C1383.16 349.356 1393.53 366.27 1380.37 369.166C1376.43 370.033 1372.49 369.767 1368.51 369.564C1365.32 369.402 1358.52 367.741 1355.95 371.026C1350.57 377.897 1358.5 388.812 1361.93 394.479" stroke="#1400FF" stroke-width="16" stroke-linecap="round"/>
<path d="M1158.03 781.356C1166.66 777.397 1176.41 773.761 1184.9 780.359C1191.22 785.265 1201.59 802.179 1188.43 805.075C1184.48 805.942 1180.55 805.676 1176.57 805.473C1173.37 805.311 1166.58 803.65 1164.01 806.935C1158.63 813.806 1166.55 824.72 1169.99 830.388" stroke="#1400FF" stroke-width="16" stroke-linecap="round"/>
<path d="M816 604.361C824.631 600.403 834.382 596.766 842.874 603.365C849.188 608.27 859.558 625.184 846.396 628.08C842.453 628.947 838.519 628.681 834.536 628.479C831.342 628.316 824.551 626.655 821.979 629.94C816.6 636.811 824.524 647.726 827.959 653.393" stroke="#1400FF" stroke-width="16" stroke-linecap="round"/>
<path d="M842.908 138.554C851.539 134.596 861.29 130.96 869.783 137.558C876.096 142.463 886.466 159.378 873.304 162.273C869.361 163.141 865.428 162.874 861.444 162.672C858.25 162.51 851.459 160.848 848.887 164.134C843.508 171.005 851.432 181.919 854.867 187.587" stroke="#1400FF" stroke-width="16" stroke-linecap="round"/>
<path d="M1028.87 168.452C1037.5 164.494 1047.25 160.857 1055.75 167.456C1062.06 172.361 1072.43 189.275 1059.27 192.171C1055.32 193.038 1051.39 192.772 1047.41 192.57C1044.21 192.407 1037.42 190.746 1034.85 194.031C1029.47 200.902 1037.4 211.817 1040.83 217.484" stroke="#1400FF" stroke-width="16" stroke-linecap="round"/>
<path d="M1222.61 469.223C1231.24 465.265 1240.99 461.629 1249.48 468.227C1255.8 473.132 1266.17 490.047 1253.01 492.942C1249.06 493.81 1245.13 493.543 1241.15 493.341C1237.95 493.178 1231.16 491.517 1228.59 494.803C1223.21 501.673 1231.13 512.588 1234.57 518.256" stroke="#1400FF" stroke-width="16" stroke-linecap="round"/>
<path d="M1345.79 856.698C1354.42 852.74 1364.17 849.103 1372.66 855.701C1378.98 860.607 1389.35 877.521 1376.18 880.417C1372.24 881.284 1368.31 881.018 1364.32 880.816C1361.13 880.653 1354.34 878.992 1351.77 882.277C1346.39 889.148 1354.31 900.063 1357.75 905.73" stroke="#1400FF" stroke-width="16" stroke-linecap="round"/>
<path d="M852.475 792.119C861.106 788.161 870.857 784.524 879.35 791.122C885.663 796.028 896.033 812.942 882.871 815.838C878.928 816.705 874.994 816.439 871.011 816.236C867.817 816.074 861.026 814.413 858.454 817.698C853.075 824.569 860.999 835.484 864.434 841.151" stroke="#1400FF" stroke-width="16" stroke-linecap="round"/>
</svg>
