<svg width="1385" height="945" viewBox="0 0 1385 945" fill="none" xmlns="http://www.w3.org/2000/svg">
<path d="M250.853 99.8687C234.111 99.8687 218.435 116.052 227.12 135.746" stroke="#1400FF" stroke-width="6" stroke-linecap="round"/>
<path d="M358.485 240.986C341.743 240.986 326.067 257.17 334.752 276.863" stroke="#1400FF" stroke-width="6" stroke-linecap="round"/>
<path d="M460.735 406.619C443.993 406.619 428.317 422.803 437.002 442.497" stroke="#1400FF" stroke-width="6" stroke-linecap="round"/>
<path d="M560.594 204.511C543.851 204.511 528.175 220.695 536.86 240.388" stroke="#1400FF" stroke-width="6" stroke-linecap="round"/>
<path d="M701.113 305.565C684.37 305.565 668.695 321.749 677.38 341.442" stroke="#1400FF" stroke-width="6" stroke-linecap="round"/>
<path d="M786.022 136.942C769.28 136.942 753.604 153.126 762.289 172.819" stroke="#1400FF" stroke-width="6" stroke-linecap="round"/>
<path d="M609.028 478.972C592.285 478.972 576.61 495.156 585.295 514.849" stroke="#1400FF" stroke-width="6" stroke-linecap="round"/>
<path d="M234.708 408.413C217.966 408.413 202.29 424.597 210.975 444.291" stroke="#1400FF" stroke-width="6" stroke-linecap="round"/>
<path d="M463.725 182.386C446.982 182.386 431.307 198.57 439.992 218.264" stroke="#1400FF" stroke-width="6" stroke-linecap="round"/>
<path d="M466.117 60.4037C449.374 60.4037 433.699 76.5875 442.384 96.281" stroke="#1400FF" stroke-width="6" stroke-linecap="round"/>
<path d="M662.844 39.4752C646.101 39.4752 630.426 55.659 639.111 75.3525" stroke="#1400FF" stroke-width="6" stroke-linecap="round"/>
<path d="M796.786 442.497C780.043 442.497 764.368 458.68 773.053 478.374" stroke="#1400FF" stroke-width="6" stroke-linecap="round"/>
<path d="M275.472 148.901C279.677 150.529 283.454 152.775 287.431 154.88" stroke="#1400FF" stroke-width="6" stroke-linecap="round"/>
<path d="M310.751 194.345C314.957 195.973 318.734 198.22 322.71 200.325" stroke="#1400FF" stroke-width="6" stroke-linecap="round"/>
<path d="M418.383 335.463C422.588 337.091 426.365 339.337 430.342 341.442" stroke="#1400FF" stroke-width="6" stroke-linecap="round"/>
<path d="M560.696 120.199C564.901 121.827 568.678 124.073 572.655 126.179" stroke="#1400FF" stroke-width="6" stroke-linecap="round"/>
<path d="M653.379 258.925C657.584 260.553 661.361 262.799 665.338 264.904" stroke="#1400FF" stroke-width="6" stroke-linecap="round"/>
<path d="M738.288 90.3014C742.494 91.9294 746.271 94.1757 750.247 96.2809" stroke="#1400FF" stroke-width="6" stroke-linecap="round"/>
<path d="M301.781 412.001C305.987 413.629 309.764 415.875 313.74 417.981" stroke="#1400FF" stroke-width="6" stroke-linecap="round"/>
<path d="M162.458 500.498C166.664 502.126 170.441 504.373 174.417 506.478" stroke="#1400FF" stroke-width="6" stroke-linecap="round"/>
<path d="M30.3101 172.819C34.5156 174.447 38.2926 176.693 42.2692 178.799" stroke="#1400FF" stroke-width="6" stroke-linecap="round"/>
<path d="M418.383 13.7632C422.588 15.3911 426.365 17.6375 430.342 19.7427" stroke="#1400FF" stroke-width="6" stroke-linecap="round"/>
<path d="M398.052 274.471C402.258 276.099 406.035 278.346 410.011 280.451" stroke="#1400FF" stroke-width="6" stroke-linecap="round"/>
<path d="M749.052 395.856C753.257 397.484 757.034 399.731 761.011 401.836" stroke="#1400FF" stroke-width="6" stroke-linecap="round"/>
<path d="M150.499 66.9811C141.562 66.4476 122.371 64.2888 120.07 76.947C118.234 87.0434 128.875 93.1837 136.48 96.0484C145.127 99.3053 153.522 98.9547 162.458 99.8686" stroke="#1400FF" stroke-width="6" stroke-linecap="round"/>
<path d="M27.5348 16.7863C22.2295 23.9981 9.98701 38.9334 19.3614 47.7452C26.8386 54.7736 37.7763 49.1789 44.3144 44.3521C51.748 38.8642 56.0165 31.6269 61.6405 24.6227" stroke="#1400FF" stroke-width="6" stroke-linecap="round"/>
<path d="M365.762 349.216C356.825 348.682 337.635 346.523 335.333 359.182C333.498 369.278 344.139 375.418 351.744 378.283C360.391 381.54 368.786 381.189 377.722 382.103" stroke="#1400FF" stroke-width="6" stroke-linecap="round"/>
<path d="M794.041 280.926C785.104 280.393 765.913 278.234 763.612 290.892C761.776 300.988 772.417 307.129 780.022 309.993C788.669 313.25 797.064 312.9 806 313.814" stroke="#1400FF" stroke-width="6" stroke-linecap="round"/>
<path d="M600.759 272.678C591.821 272.144 572.631 269.985 570.329 282.643C568.494 292.74 579.135 298.88 586.74 301.745C595.387 305.002 603.782 304.651 612.718 305.565" stroke="#1400FF" stroke-width="6" stroke-linecap="round"/>
<path d="M685.669 104.054C676.732 103.521 657.541 101.362 655.239 114.02C653.404 124.117 664.045 130.257 671.65 133.122C680.297 136.379 688.692 136.028 697.628 136.942" stroke="#1400FF" stroke-width="6" stroke-linecap="round"/>
<path d="M535.127 426.827C526.19 426.294 506.999 424.135 504.697 436.793C502.862 446.889 513.503 453.03 521.108 455.894C529.755 459.151 538.15 458.801 547.086 459.715" stroke="#1400FF" stroke-width="6" stroke-linecap="round"/>
<path d="M188.313 341.918C179.376 341.384 160.185 339.225 157.884 351.884C156.048 361.98 166.689 368.12 174.294 370.985C182.941 374.242 191.336 373.891 200.272 374.805" stroke="#1400FF" stroke-width="6" stroke-linecap="round"/>
<path d="M72.7649 233.213C63.8278 232.679 44.6372 230.52 42.3357 243.178C40.5 253.275 51.141 259.415 58.7462 262.28C67.393 265.537 75.788 265.186 84.724 266.1" stroke="#1400FF" stroke-width="6" stroke-linecap="round"/>
<path d="M365.763 27.5161C356.826 26.9826 337.635 24.8238 335.334 37.4821C333.498 47.5784 344.139 53.7188 351.744 56.5834C360.391 59.8404 368.786 59.4897 377.722 60.4037" stroke="#1400FF" stroke-width="6" stroke-linecap="round"/>
<path d="M562.49 6.58768C553.553 6.05412 534.362 3.89537 532.061 16.5536C530.225 26.65 540.866 32.7903 548.471 35.6549C557.118 38.9119 565.513 38.5613 574.449 39.4752" stroke="#1400FF" stroke-width="6" stroke-linecap="round"/>
<path d="M696.432 409.609C687.495 409.075 668.304 406.917 666.003 419.575C664.167 429.671 674.808 435.812 682.413 438.676C691.06 441.933 699.455 441.583 708.391 442.497" stroke="#1400FF" stroke-width="6" stroke-linecap="round"/>
<path d="M102.662 135.746C97.7421 143.385 90.033 142.864 81.7339 143.519" stroke="#1400FF" stroke-width="6" stroke-linecap="round"/>
<path d="M210.294 276.863C205.374 284.503 197.665 283.982 189.366 284.637" stroke="#1400FF" stroke-width="6" stroke-linecap="round"/>
<path d="M264.11 218.862C259.19 226.501 251.481 225.98 243.182 226.635" stroke="#1400FF" stroke-width="6" stroke-linecap="round"/>
<path d="M493.725 278.657C488.805 286.296 481.095 285.775 472.796 286.431" stroke="#1400FF" stroke-width="6" stroke-linecap="round"/>
<path d="M552.923 341.442C548.002 349.082 540.293 348.561 531.994 349.216" stroke="#1400FF" stroke-width="6" stroke-linecap="round"/>
<path d="M637.832 172.819C632.912 180.458 625.202 179.937 616.903 180.593" stroke="#1400FF" stroke-width="6" stroke-linecap="round"/>
<path d="M460.838 514.849C455.917 522.488 448.208 521.967 439.909 522.623" stroke="#1400FF" stroke-width="6" stroke-linecap="round"/>
<path d="M86.5178 444.291C81.5976 451.93 73.8884 451.409 65.5894 452.064" stroke="#1400FF" stroke-width="6" stroke-linecap="round"/>
<path d="M24.9284 301.977C20.0082 309.617 12.2991 309.096 4 309.751" stroke="#1400FF" stroke-width="6" stroke-linecap="round"/>
<path d="M317.926 96.2809C313.006 103.92 305.297 103.399 296.998 104.054" stroke="#1400FF" stroke-width="6" stroke-linecap="round"/>
<path d="M504.488 119.601C499.568 127.24 491.859 126.719 483.56 127.375" stroke="#1400FF" stroke-width="6" stroke-linecap="round"/>
<path d="M622.883 388.083C617.963 395.722 610.254 395.201 601.955 395.856" stroke="#1400FF" stroke-width="6" stroke-linecap="round"/>
<path d="M150.949 222.725C146.991 214.094 143.354 204.343 149.953 195.851C154.858 189.537 171.772 179.167 174.668 192.329C175.536 196.272 175.269 200.206 175.067 204.189C174.904 207.383 173.243 214.174 176.528 216.746C183.399 222.125 194.314 214.201 199.982 210.766" stroke="#1400FF" stroke-width="6" stroke-linecap="round"/>
<path d="M247.818 335.739C243.859 327.107 240.223 317.356 246.821 308.864C251.727 302.55 268.641 292.181 271.537 305.343C272.404 309.286 272.138 313.219 271.935 317.202C271.773 320.397 270.112 327.187 273.397 329.759C280.268 335.138 291.183 327.215 296.85 323.78" stroke="#1400FF" stroke-width="6" stroke-linecap="round"/>
<path d="M360.832 515.125C356.873 506.494 353.237 496.743 359.835 488.251C364.741 481.937 381.655 471.567 384.55 484.729C385.418 488.672 385.152 492.606 384.949 496.589C384.787 499.783 383.125 506.574 386.411 509.146C393.282 514.525 404.196 506.601 409.864 503.166" stroke="#1400FF" stroke-width="6" stroke-linecap="round"/>
<path d="M253.2 533.064C249.241 524.432 245.605 514.681 252.203 506.189C257.109 499.875 274.023 489.506 276.919 502.668C277.786 506.611 277.52 510.544 277.317 514.527C277.155 517.722 275.494 524.512 278.779 527.084C285.65 532.464 296.564 524.54 302.232 521.105" stroke="#1400FF" stroke-width="6" stroke-linecap="round"/>
<path d="M239.447 39.7513C235.488 31.1198 231.852 21.3687 238.45 12.8766C243.356 6.56287 260.27 -3.80664 263.166 9.35527C264.033 13.2981 263.767 17.2316 263.564 21.2147C263.402 24.4094 261.741 31.1997 265.026 33.7718C271.897 39.1509 282.812 31.2271 288.479 27.7922" stroke="#1400FF" stroke-width="6" stroke-linecap="round"/>
<path d="M675.356 231.695C671.398 223.063 667.761 213.312 674.359 204.82C679.265 198.506 696.179 188.137 699.075 201.299C699.942 205.242 699.676 209.175 699.473 213.158C699.311 216.353 697.65 223.143 700.935 225.715C707.806 231.094 718.721 223.171 724.388 219.736" stroke="#1400FF" stroke-width="6" stroke-linecap="round"/>
<path d="M498.361 573.725C494.403 565.093 490.767 555.342 497.365 546.85C502.27 540.536 519.185 530.167 522.08 543.329C522.948 547.272 522.681 551.205 522.479 555.188C522.316 558.383 520.655 565.173 523.941 567.745C530.811 573.124 541.726 565.201 547.394 561.766" stroke="#1400FF" stroke-width="6" stroke-linecap="round"/>
<path d="M32.5542 546.817C28.5958 538.185 24.9594 528.434 31.5576 519.942C36.4632 513.628 53.3775 503.259 56.2731 516.421C57.1405 520.364 56.8742 524.297 56.6717 528.28C56.5093 531.475 54.8481 538.265 58.1334 540.837C65.0043 546.216 75.9189 538.293 81.5865 534.858" stroke="#1400FF" stroke-width="6" stroke-linecap="round"/>
<path d="M62.4522 360.853C58.4938 352.222 54.8573 342.47 61.4556 333.978C66.3612 327.665 83.2754 317.295 86.171 330.457C87.0385 334.4 86.7722 338.333 86.5697 342.316C86.4072 345.511 84.7461 352.301 88.0313 354.873C94.9022 360.253 105.817 352.329 111.484 348.894" stroke="#1400FF" stroke-width="6" stroke-linecap="round"/>
<path d="M363.223 167.116C359.265 158.484 355.628 148.733 362.227 140.241C367.132 133.927 384.046 123.558 386.942 136.72C387.809 140.663 387.543 144.596 387.341 148.579C387.178 151.774 385.517 158.564 388.802 161.136C395.673 166.515 406.588 158.591 412.255 155.157" stroke="#1400FF" stroke-width="6" stroke-linecap="round"/>
<path d="M750.698 43.937C746.739 35.3055 743.103 25.5544 749.701 17.0622C754.607 10.7485 771.521 0.379032 774.417 13.5409C775.284 17.4838 775.018 21.4173 774.815 25.4004C774.653 28.595 772.992 35.3854 776.277 37.9574C783.148 43.3366 794.062 35.4128 799.73 31.9779" stroke="#1400FF" stroke-width="6" stroke-linecap="round"/>
<path d="M686.119 537.25C682.16 528.618 678.524 518.867 685.122 510.375C690.028 504.061 706.942 493.692 709.838 506.854C710.705 510.796 710.439 514.73 710.236 518.713C710.074 521.908 708.413 528.698 711.698 531.27C718.569 536.649 729.483 528.725 735.151 525.29" stroke="#1400FF" stroke-width="6" stroke-linecap="round"/>
<path d="M249.853 467.869C233.111 467.869 217.435 484.052 226.12 503.746" stroke="#1400FF" stroke-width="6" stroke-linecap="round"/>
<path d="M357.485 608.986C340.743 608.986 325.067 625.17 333.752 644.863" stroke="#1400FF" stroke-width="6" stroke-linecap="round"/>
<path d="M459.735 774.619C442.993 774.619 427.317 790.803 436.002 810.497" stroke="#1400FF" stroke-width="6" stroke-linecap="round"/>
<path d="M559.594 572.511C542.851 572.511 527.175 588.695 535.86 608.388" stroke="#1400FF" stroke-width="6" stroke-linecap="round"/>
<path d="M700.113 673.565C683.37 673.565 667.695 689.749 676.38 709.442" stroke="#1400FF" stroke-width="6" stroke-linecap="round"/>
<path d="M785.022 504.942C768.28 504.942 752.604 521.126 761.289 540.819" stroke="#1400FF" stroke-width="6" stroke-linecap="round"/>
<path d="M608.028 846.972C591.285 846.972 575.61 863.156 584.295 882.849" stroke="#1400FF" stroke-width="6" stroke-linecap="round"/>
<path d="M233.708 776.413C216.966 776.413 201.29 792.597 209.975 812.291" stroke="#1400FF" stroke-width="6" stroke-linecap="round"/>
<path d="M462.725 550.386C445.982 550.386 430.307 566.57 438.992 586.264" stroke="#1400FF" stroke-width="6" stroke-linecap="round"/>
<path d="M465.117 428.404C448.374 428.404 432.699 444.587 441.384 464.281" stroke="#1400FF" stroke-width="6" stroke-linecap="round"/>
<path d="M661.844 407.475C645.101 407.475 629.426 423.659 638.111 443.353" stroke="#1400FF" stroke-width="6" stroke-linecap="round"/>
<path d="M795.786 810.497C779.043 810.497 763.368 826.68 772.053 846.374" stroke="#1400FF" stroke-width="6" stroke-linecap="round"/>
<path d="M274.472 516.901C278.677 518.529 282.454 520.775 286.431 522.88" stroke="#1400FF" stroke-width="6" stroke-linecap="round"/>
<path d="M309.751 562.345C313.957 563.973 317.734 566.22 321.71 568.325" stroke="#1400FF" stroke-width="6" stroke-linecap="round"/>
<path d="M417.383 703.463C421.588 705.091 425.365 707.337 429.342 709.442" stroke="#1400FF" stroke-width="6" stroke-linecap="round"/>
<path d="M559.696 488.199C563.901 489.827 567.678 492.073 571.655 494.179" stroke="#1400FF" stroke-width="6" stroke-linecap="round"/>
<path d="M652.379 626.925C656.584 628.553 660.361 630.799 664.338 632.904" stroke="#1400FF" stroke-width="6" stroke-linecap="round"/>
<path d="M737.288 458.301C741.494 459.929 745.271 462.176 749.247 464.281" stroke="#1400FF" stroke-width="6" stroke-linecap="round"/>
<path d="M300.781 780.001C304.987 781.629 308.764 783.875 312.74 785.981" stroke="#1400FF" stroke-width="6" stroke-linecap="round"/>
<path d="M161.458 868.498C165.664 870.126 169.441 872.373 173.417 874.478" stroke="#1400FF" stroke-width="6" stroke-linecap="round"/>
<path d="M29.3101 540.819C33.5156 542.447 37.2926 544.693 41.2692 546.799" stroke="#1400FF" stroke-width="6" stroke-linecap="round"/>
<path d="M417.383 381.763C421.588 383.391 425.365 385.637 429.342 387.743" stroke="#1400FF" stroke-width="6" stroke-linecap="round"/>
<path d="M397.052 642.471C401.258 644.099 405.035 646.346 409.011 648.451" stroke="#1400FF" stroke-width="6" stroke-linecap="round"/>
<path d="M748.052 763.856C752.257 765.484 756.034 767.731 760.011 769.836" stroke="#1400FF" stroke-width="6" stroke-linecap="round"/>
<path d="M149.499 434.981C140.562 434.448 121.371 432.289 119.07 444.947C117.234 455.043 127.875 461.184 135.48 464.048C144.127 467.305 152.522 466.955 161.458 467.869" stroke="#1400FF" stroke-width="6" stroke-linecap="round"/>
<path d="M26.5348 384.786C21.2295 391.998 8.98701 406.933 18.3614 415.745C25.8386 422.774 36.7763 417.179 43.3144 412.352C50.748 406.864 55.0165 399.627 60.6405 392.623" stroke="#1400FF" stroke-width="6" stroke-linecap="round"/>
<path d="M364.762 717.216C355.825 716.682 336.635 714.523 334.333 727.182C332.498 737.278 343.139 743.418 350.744 746.283C359.391 749.54 367.786 749.189 376.722 750.103" stroke="#1400FF" stroke-width="6" stroke-linecap="round"/>
<path d="M793.041 648.926C784.104 648.393 764.913 646.234 762.612 658.892C760.776 668.988 771.417 675.129 779.022 677.993C787.669 681.25 796.064 680.9 805 681.814" stroke="#1400FF" stroke-width="6" stroke-linecap="round"/>
<path d="M599.759 640.678C590.821 640.144 571.631 637.985 569.329 650.643C567.494 660.74 578.135 666.88 585.74 669.745C594.387 673.002 602.782 672.651 611.718 673.565" stroke="#1400FF" stroke-width="6" stroke-linecap="round"/>
<path d="M684.669 472.054C675.732 471.521 656.541 469.362 654.239 482.02C652.404 492.117 663.045 498.257 670.65 501.122C679.297 504.379 687.692 504.028 696.628 504.942" stroke="#1400FF" stroke-width="6" stroke-linecap="round"/>
<path d="M534.127 794.827C525.19 794.294 505.999 792.135 503.697 804.793C501.862 814.889 512.503 821.03 520.108 823.894C528.755 827.151 537.15 826.801 546.086 827.715" stroke="#1400FF" stroke-width="6" stroke-linecap="round"/>
<path d="M187.313 709.918C178.376 709.384 159.185 707.225 156.884 719.884C155.048 729.98 165.689 736.12 173.294 738.985C181.941 742.242 190.336 741.891 199.272 742.805" stroke="#1400FF" stroke-width="6" stroke-linecap="round"/>
<path d="M71.7649 601.213C62.8278 600.679 43.6372 598.52 41.3357 611.178C39.5 621.275 50.141 627.415 57.7462 630.28C66.393 633.537 74.788 633.186 83.724 634.1" stroke="#1400FF" stroke-width="6" stroke-linecap="round"/>
<path d="M364.763 395.516C355.826 394.983 336.635 392.824 334.334 405.482C332.498 415.578 343.139 421.719 350.744 424.583C359.391 427.84 367.786 427.49 376.722 428.404" stroke="#1400FF" stroke-width="6" stroke-linecap="round"/>
<path d="M561.49 374.588C552.553 374.054 533.362 371.895 531.061 384.554C529.225 394.65 539.866 400.79 547.471 403.655C556.118 406.912 564.513 406.561 573.449 407.475" stroke="#1400FF" stroke-width="6" stroke-linecap="round"/>
<path d="M695.432 777.609C686.495 777.075 667.304 774.917 665.003 787.575C663.167 797.671 673.808 803.812 681.413 806.676C690.06 809.933 698.455 809.583 707.391 810.497" stroke="#1400FF" stroke-width="6" stroke-linecap="round"/>
<path d="M101.662 503.746C96.7421 511.385 89.033 510.864 80.7339 511.519" stroke="#1400FF" stroke-width="6" stroke-linecap="round"/>
<path d="M209.294 644.863C204.374 652.503 196.665 651.982 188.366 652.637" stroke="#1400FF" stroke-width="6" stroke-linecap="round"/>
<path d="M263.11 586.862C258.19 594.501 250.481 593.98 242.182 594.635" stroke="#1400FF" stroke-width="6" stroke-linecap="round"/>
<path d="M492.725 646.657C487.805 654.296 480.095 653.775 471.796 654.431" stroke="#1400FF" stroke-width="6" stroke-linecap="round"/>
<path d="M551.923 709.442C547.002 717.082 539.293 716.561 530.994 717.216" stroke="#1400FF" stroke-width="6" stroke-linecap="round"/>
<path d="M636.832 540.819C631.912 548.458 624.202 547.937 615.903 548.593" stroke="#1400FF" stroke-width="6" stroke-linecap="round"/>
<path d="M459.838 882.849C454.917 890.488 447.208 889.967 438.909 890.623" stroke="#1400FF" stroke-width="6" stroke-linecap="round"/>
<path d="M85.5178 812.291C80.5976 819.93 72.8884 819.409 64.5894 820.064" stroke="#1400FF" stroke-width="6" stroke-linecap="round"/>
<path d="M23.9284 669.977C19.0082 677.617 11.2991 677.096 3 677.751" stroke="#1400FF" stroke-width="6" stroke-linecap="round"/>
<path d="M316.926 464.281C312.006 471.92 304.297 471.399 295.998 472.054" stroke="#1400FF" stroke-width="6" stroke-linecap="round"/>
<path d="M503.488 487.601C498.568 495.24 490.859 494.719 482.56 495.375" stroke="#1400FF" stroke-width="6" stroke-linecap="round"/>
<path d="M621.883 756.083C616.963 763.722 609.254 763.201 600.955 763.856" stroke="#1400FF" stroke-width="6" stroke-linecap="round"/>
<path d="M149.949 590.725C145.991 582.094 142.354 572.343 148.953 563.851C153.858 557.537 170.772 547.167 173.668 560.329C174.536 564.272 174.269 568.206 174.067 572.189C173.904 575.383 172.243 582.174 175.528 584.746C182.399 590.125 193.314 582.201 198.982 578.766" stroke="#1400FF" stroke-width="6" stroke-linecap="round"/>
<path d="M246.818 703.739C242.859 695.107 239.223 685.356 245.821 676.864C250.727 670.55 267.641 660.181 270.537 673.343C271.404 677.286 271.138 681.219 270.935 685.202C270.773 688.397 269.112 695.187 272.397 697.759C279.268 703.138 290.183 695.215 295.85 691.78" stroke="#1400FF" stroke-width="6" stroke-linecap="round"/>
<path d="M359.832 883.125C355.873 874.494 352.237 864.743 358.835 856.251C363.741 849.937 380.655 839.567 383.55 852.729C384.418 856.672 384.152 860.606 383.949 864.589C383.787 867.783 382.125 874.574 385.411 877.146C392.282 882.525 403.196 874.601 408.864 871.166" stroke="#1400FF" stroke-width="6" stroke-linecap="round"/>
<path d="M252.2 901.064C248.241 892.432 244.605 882.681 251.203 874.189C256.109 867.875 273.023 857.506 275.919 870.668C276.786 874.611 276.52 878.544 276.317 882.527C276.155 885.722 274.494 892.512 277.779 895.084C284.65 900.464 295.564 892.54 301.232 889.105" stroke="#1400FF" stroke-width="6" stroke-linecap="round"/>
<path d="M238.447 407.751C234.488 399.12 230.852 389.369 237.45 380.877C242.356 374.563 259.27 364.193 262.166 377.355C263.033 381.298 262.767 385.232 262.564 389.215C262.402 392.409 260.741 399.2 264.026 401.772C270.897 407.151 281.812 399.227 287.479 395.792" stroke="#1400FF" stroke-width="6" stroke-linecap="round"/>
<path d="M674.356 599.695C670.398 591.063 666.761 581.312 673.359 572.82C678.265 566.506 695.179 556.137 698.075 569.299C698.942 573.242 698.676 577.175 698.473 581.158C698.311 584.353 696.65 591.143 699.935 593.715C706.806 599.094 717.721 591.171 723.388 587.736" stroke="#1400FF" stroke-width="6" stroke-linecap="round"/>
<path d="M497.361 941.725C493.403 933.093 489.767 923.342 496.365 914.85C501.27 908.536 518.185 898.167 521.08 911.329C521.948 915.272 521.681 919.205 521.479 923.188C521.316 926.383 519.655 933.173 522.941 935.745C529.811 941.124 540.726 933.201 546.394 929.766" stroke="#1400FF" stroke-width="6" stroke-linecap="round"/>
<path d="M31.5542 914.817C27.5958 906.185 23.9594 896.434 30.5576 887.942C35.4632 881.628 52.3775 871.259 55.2731 884.421C56.1405 888.364 55.8742 892.297 55.6717 896.28C55.5093 899.475 53.8481 906.265 57.1334 908.837C64.0043 914.216 74.9189 906.293 80.5865 902.858" stroke="#1400FF" stroke-width="6" stroke-linecap="round"/>
<path d="M61.4522 728.853C57.4938 720.222 53.8573 710.47 60.4556 701.978C65.3612 695.665 82.2754 685.295 85.171 698.457C86.0385 702.4 85.7722 706.333 85.5697 710.316C85.4072 713.511 83.7461 720.301 87.0313 722.873C93.9022 728.253 104.817 720.329 110.484 716.894" stroke="#1400FF" stroke-width="6" stroke-linecap="round"/>
<path d="M362.223 535.116C358.265 526.484 354.628 516.733 361.227 508.241C366.132 501.927 383.046 491.558 385.942 504.72C386.809 508.663 386.543 512.596 386.341 516.579C386.178 519.774 384.517 526.564 387.802 529.136C394.673 534.515 405.588 526.591 411.255 523.157" stroke="#1400FF" stroke-width="6" stroke-linecap="round"/>
<path d="M749.698 411.937C745.739 403.305 742.103 393.554 748.701 385.062C753.607 378.749 770.521 368.379 773.417 381.541C774.284 385.484 774.018 389.417 773.815 393.4C773.653 396.595 771.992 403.385 775.277 405.957C782.148 411.337 793.062 403.413 798.73 399.978" stroke="#1400FF" stroke-width="6" stroke-linecap="round"/>
<path d="M685.119 905.25C681.16 896.618 677.524 886.867 684.122 878.375C689.028 872.061 705.942 861.692 708.838 874.854C709.705 878.796 709.439 882.73 709.236 886.713C709.074 889.908 707.413 896.698 710.698 899.27C717.569 904.649 728.483 896.725 734.151 893.29" stroke="#1400FF" stroke-width="6" stroke-linecap="round"/>
<path d="M1284.86 351.853C1284.86 335.11 1268.67 319.435 1248.98 328.12" stroke="#1400FF" stroke-width="6" stroke-linecap="round"/>
<path d="M1143.74 459.485C1143.74 442.742 1127.55 427.067 1107.86 435.752" stroke="#1400FF" stroke-width="6" stroke-linecap="round"/>
<path d="M978.105 561.735C978.105 544.993 961.921 529.317 942.228 538.002" stroke="#1400FF" stroke-width="6" stroke-linecap="round"/>
<path d="M1180.21 661.594C1180.21 644.851 1164.03 629.175 1144.34 637.86" stroke="#1400FF" stroke-width="6" stroke-linecap="round"/>
<path d="M1079.16 802.113C1079.16 785.37 1062.98 769.695 1043.28 778.38" stroke="#1400FF" stroke-width="6" stroke-linecap="round"/>
<path d="M1247.78 887.023C1247.78 870.28 1231.6 854.604 1211.91 863.289" stroke="#1400FF" stroke-width="6" stroke-linecap="round"/>
<path d="M905.752 710.028C905.752 693.285 889.569 677.61 869.875 686.295" stroke="#1400FF" stroke-width="6" stroke-linecap="round"/>
<path d="M976.312 335.708C976.312 318.966 960.128 303.29 940.434 311.975" stroke="#1400FF" stroke-width="6" stroke-linecap="round"/>
<path d="M1202.34 564.725C1202.34 547.982 1186.15 532.307 1166.46 540.992" stroke="#1400FF" stroke-width="6" stroke-linecap="round"/>
<path d="M1324.32 567.117C1324.32 550.374 1308.14 534.699 1288.44 543.384" stroke="#1400FF" stroke-width="6" stroke-linecap="round"/>
<path d="M1345.25 763.844C1345.25 747.101 1329.07 731.426 1309.37 740.111" stroke="#1400FF" stroke-width="6" stroke-linecap="round"/>
<path d="M942.228 897.786C942.228 881.043 926.044 865.368 906.351 874.053" stroke="#1400FF" stroke-width="6" stroke-linecap="round"/>
<path d="M1235.82 376.471C1234.2 380.677 1231.95 384.454 1229.84 388.431" stroke="#1400FF" stroke-width="6" stroke-linecap="round"/>
<path d="M1190.38 411.751C1188.75 415.956 1186.5 419.733 1184.4 423.71" stroke="#1400FF" stroke-width="6" stroke-linecap="round"/>
<path d="M1049.26 519.383C1047.63 523.588 1045.39 527.365 1043.28 531.342" stroke="#1400FF" stroke-width="6" stroke-linecap="round"/>
<path d="M1264.53 661.696C1262.9 665.901 1260.65 669.678 1258.55 673.655" stroke="#1400FF" stroke-width="6" stroke-linecap="round"/>
<path d="M1125.8 754.379C1124.17 758.584 1121.93 762.361 1119.82 766.338" stroke="#1400FF" stroke-width="6" stroke-linecap="round"/>
<path d="M1294.42 839.288C1292.79 843.494 1290.55 847.271 1288.44 851.247" stroke="#1400FF" stroke-width="6" stroke-linecap="round"/>
<path d="M972.724 402.781C971.096 406.987 968.849 410.764 966.744 414.74" stroke="#1400FF" stroke-width="6" stroke-linecap="round"/>
<path d="M884.226 263.458C882.598 267.664 880.352 271.441 878.247 275.417" stroke="#1400FF" stroke-width="6" stroke-linecap="round"/>
<path d="M1211.91 131.31C1210.28 135.516 1208.03 139.293 1205.93 143.269" stroke="#1400FF" stroke-width="6" stroke-linecap="round"/>
<path d="M1370.96 519.383C1369.33 523.588 1367.09 527.365 1364.98 531.342" stroke="#1400FF" stroke-width="6" stroke-linecap="round"/>
<path d="M1110.25 499.052C1108.62 503.258 1106.38 507.035 1104.27 511.011" stroke="#1400FF" stroke-width="6" stroke-linecap="round"/>
<path d="M988.868 850.052C987.24 854.257 984.994 858.034 982.889 862.011" stroke="#1400FF" stroke-width="6" stroke-linecap="round"/>
<path d="M1317.74 251.499C1318.28 242.562 1320.44 223.371 1307.78 221.07C1297.68 219.234 1291.54 229.875 1288.68 237.48C1285.42 246.127 1285.77 254.522 1284.86 263.458" stroke="#1400FF" stroke-width="6" stroke-linecap="round"/>
<path d="M1367.94 128.535C1360.73 123.23 1345.79 110.987 1336.98 120.362C1329.95 127.839 1335.55 138.776 1340.37 145.315C1345.86 152.748 1353.1 157.017 1360.1 162.641" stroke="#1400FF" stroke-width="6" stroke-linecap="round"/>
<path d="M1035.51 466.763C1036.04 457.825 1038.2 438.635 1025.54 436.333C1015.45 434.498 1009.31 445.139 1006.44 452.744C1003.18 461.391 1003.54 469.786 1002.62 478.722" stroke="#1400FF" stroke-width="6" stroke-linecap="round"/>
<path d="M1103.8 895.041C1104.33 886.104 1106.49 866.913 1093.83 864.612C1083.74 862.776 1077.6 873.417 1074.73 881.022C1071.47 889.669 1071.82 898.064 1070.91 907" stroke="#1400FF" stroke-width="6" stroke-linecap="round"/>
<path d="M1112.05 701.759C1112.58 692.822 1114.74 673.631 1102.08 671.329C1091.98 669.494 1085.84 680.135 1082.98 687.74C1079.72 696.387 1080.07 704.782 1079.16 713.718" stroke="#1400FF" stroke-width="6" stroke-linecap="round"/>
<path d="M1280.67 786.669C1281.2 777.731 1283.36 758.541 1270.7 756.239C1260.61 754.404 1254.47 765.045 1251.6 772.65C1248.35 781.297 1248.7 789.692 1247.78 798.628" stroke="#1400FF" stroke-width="6" stroke-linecap="round"/>
<path d="M957.897 636.126C958.431 627.189 960.59 607.999 947.931 605.697C937.835 603.862 931.695 614.503 928.83 622.108C925.573 630.755 925.924 639.15 925.01 648.086" stroke="#1400FF" stroke-width="6" stroke-linecap="round"/>
<path d="M1042.81 289.313C1043.34 280.376 1045.5 261.185 1032.84 258.884C1022.74 257.048 1016.6 267.689 1013.74 275.294C1010.48 283.941 1010.83 292.336 1009.92 301.272" stroke="#1400FF" stroke-width="6" stroke-linecap="round"/>
<path d="M1151.51 173.765C1152.05 164.828 1154.2 145.637 1141.55 143.336C1131.45 141.5 1125.31 152.141 1122.44 159.746C1119.19 168.393 1119.54 176.788 1118.62 185.724" stroke="#1400FF" stroke-width="6" stroke-linecap="round"/>
<path d="M1357.21 466.763C1357.74 457.826 1359.9 438.635 1347.24 436.334C1337.15 434.498 1331.01 445.139 1328.14 452.744C1324.88 461.391 1325.23 469.786 1324.32 478.722" stroke="#1400FF" stroke-width="6" stroke-linecap="round"/>
<path d="M1378.14 663.49C1378.67 654.553 1380.83 635.362 1368.17 633.061C1358.07 631.225 1351.93 641.866 1349.07 649.471C1345.81 658.118 1346.16 666.513 1345.25 675.449" stroke="#1400FF" stroke-width="6" stroke-linecap="round"/>
<path d="M975.116 797.432C975.649 788.495 977.808 769.304 965.15 767.003C955.053 765.167 948.913 775.808 946.048 783.413C942.791 792.06 943.142 800.455 942.228 809.391" stroke="#1400FF" stroke-width="6" stroke-linecap="round"/>
<path d="M1248.98 203.663C1241.34 198.742 1241.86 191.033 1241.21 182.734" stroke="#1400FF" stroke-width="6" stroke-linecap="round"/>
<path d="M1107.86 311.294C1100.22 306.374 1100.74 298.665 1100.09 290.366" stroke="#1400FF" stroke-width="6" stroke-linecap="round"/>
<path d="M1165.86 365.11C1158.22 360.19 1158.74 352.481 1158.09 344.182" stroke="#1400FF" stroke-width="6" stroke-linecap="round"/>
<path d="M1106.07 594.725C1098.43 589.805 1098.95 582.096 1098.29 573.797" stroke="#1400FF" stroke-width="6" stroke-linecap="round"/>
<path d="M1043.28 653.922C1035.64 649.002 1036.16 641.293 1035.51 632.994" stroke="#1400FF" stroke-width="6" stroke-linecap="round"/>
<path d="M1211.91 738.832C1204.27 733.912 1204.79 726.203 1204.13 717.904" stroke="#1400FF" stroke-width="6" stroke-linecap="round"/>
<path d="M869.875 561.837C862.236 556.917 862.757 549.208 862.102 540.909" stroke="#1400FF" stroke-width="6" stroke-linecap="round"/>
<path d="M940.434 187.518C932.795 182.598 933.316 174.888 932.661 166.589" stroke="#1400FF" stroke-width="6" stroke-linecap="round"/>
<path d="M1082.75 125.928C1075.11 121.008 1075.63 113.299 1074.97 105" stroke="#1400FF" stroke-width="6" stroke-linecap="round"/>
<path d="M1288.44 418.926C1280.8 414.006 1281.33 406.297 1280.67 397.998" stroke="#1400FF" stroke-width="6" stroke-linecap="round"/>
<path d="M1265.12 605.488C1257.48 600.568 1258 592.859 1257.35 584.56" stroke="#1400FF" stroke-width="6" stroke-linecap="round"/>
<path d="M996.642 723.883C989.002 718.963 989.523 711.254 988.868 702.955" stroke="#1400FF" stroke-width="6" stroke-linecap="round"/>
<path d="M1162 251.949C1170.63 247.991 1180.38 244.355 1188.87 250.953C1195.19 255.858 1205.56 272.773 1192.39 275.668C1188.45 276.536 1184.52 276.27 1180.54 276.067C1177.34 275.905 1170.55 274.243 1167.98 277.529C1162.6 284.4 1170.52 295.314 1173.96 300.982" stroke="#1400FF" stroke-width="6" stroke-linecap="round"/>
<path d="M1048.99 348.818C1057.62 344.86 1067.37 341.223 1075.86 347.822C1082.17 352.727 1092.54 369.641 1079.38 372.537C1075.44 373.404 1071.51 373.138 1067.52 372.936C1064.33 372.773 1057.54 371.112 1054.97 374.397C1049.59 381.268 1057.51 392.183 1060.94 397.85" stroke="#1400FF" stroke-width="6" stroke-linecap="round"/>
<path d="M869.599 461.832C878.231 457.873 887.982 454.237 896.474 460.835C902.788 465.741 913.157 482.655 899.995 485.55C896.052 486.418 892.119 486.152 888.136 485.949C884.941 485.787 878.151 484.125 875.579 487.411C870.2 494.282 878.124 505.196 881.558 510.864" stroke="#1400FF" stroke-width="6" stroke-linecap="round"/>
<path d="M851.661 354.2C860.292 350.241 870.043 346.605 878.536 353.203C884.849 358.109 895.219 375.023 882.057 377.919C878.114 378.786 874.18 378.52 870.197 378.317C867.003 378.155 860.212 376.494 857.64 379.779C852.261 386.65 860.185 397.564 863.62 403.232" stroke="#1400FF" stroke-width="6" stroke-linecap="round"/>
<path d="M1344.97 340.447C1353.6 336.488 1363.36 332.852 1371.85 339.45C1378.16 344.356 1388.53 361.27 1375.37 364.166C1371.43 365.033 1367.49 364.767 1363.51 364.564C1360.32 364.402 1353.52 362.741 1350.95 366.026C1345.57 372.897 1353.5 383.812 1356.93 389.479" stroke="#1400FF" stroke-width="6" stroke-linecap="round"/>
<path d="M1153.03 776.356C1161.66 772.397 1171.41 768.761 1179.9 775.359C1186.22 780.265 1196.59 797.179 1183.43 800.075C1179.48 800.942 1175.55 800.676 1171.57 800.473C1168.37 800.311 1161.58 798.65 1159.01 801.935C1153.63 808.806 1161.55 819.72 1164.99 825.388" stroke="#1400FF" stroke-width="6" stroke-linecap="round"/>
<path d="M811 599.361C819.631 595.403 829.382 591.766 837.874 598.365C844.188 603.27 854.558 620.184 841.396 623.08C837.453 623.947 833.519 623.681 829.536 623.479C826.342 623.316 819.551 621.655 816.979 624.94C811.6 631.811 819.524 642.726 822.959 648.393" stroke="#1400FF" stroke-width="6" stroke-linecap="round"/>
<path d="M837.908 133.554C846.539 129.596 856.29 125.96 864.783 132.558C871.096 137.463 881.466 154.378 868.304 157.273C864.361 158.141 860.428 157.874 856.444 157.672C853.25 157.51 846.459 155.848 843.887 159.134C838.508 166.005 846.432 176.919 849.867 182.587" stroke="#1400FF" stroke-width="6" stroke-linecap="round"/>
<path d="M1023.87 163.452C1032.5 159.494 1042.25 155.857 1050.75 162.456C1057.06 167.361 1067.43 184.275 1054.27 187.171C1050.32 188.038 1046.39 187.772 1042.41 187.57C1039.21 187.407 1032.42 185.746 1029.85 189.031C1024.47 195.902 1032.4 206.817 1035.83 212.484" stroke="#1400FF" stroke-width="6" stroke-linecap="round"/>
<path d="M1217.61 464.223C1226.24 460.265 1235.99 456.629 1244.48 463.227C1250.8 468.132 1261.17 485.047 1248.01 487.942C1244.06 488.81 1240.13 488.543 1236.15 488.341C1232.95 488.178 1226.16 486.517 1223.59 489.803C1218.21 496.673 1226.13 507.588 1229.57 513.256" stroke="#1400FF" stroke-width="6" stroke-linecap="round"/>
<path d="M1340.79 851.698C1349.42 847.74 1359.17 844.103 1367.66 850.701C1373.98 855.607 1384.35 872.521 1371.18 875.417C1367.24 876.284 1363.31 876.018 1359.32 875.816C1356.13 875.653 1349.34 873.992 1346.77 877.277C1341.39 884.148 1349.31 895.063 1352.75 900.73" stroke="#1400FF" stroke-width="6" stroke-linecap="round"/>
<path d="M847.475 787.119C856.106 783.161 865.857 779.524 874.35 786.122C880.663 791.028 891.033 807.942 877.871 810.838C873.928 811.705 869.994 811.439 866.011 811.236C862.817 811.074 856.026 809.413 853.454 812.698C848.075 819.569 855.999 830.484 859.434 836.151" stroke="#1400FF" stroke-width="6" stroke-linecap="round"/>
</svg>
