<svg width="1424" height="1005" viewBox="0 0 1424 1005" fill="none" xmlns="http://www.w3.org/2000/svg">
<path d="M1408.29 307C1412.49 308.628 1416.27 310.874 1420.25 312.98" stroke="#1400FF" stroke-width="6" stroke-linecap="round"/>
<path d="M159.472 93.5995C163.677 95.2274 167.454 97.4738 171.431 99.579" stroke="#1400FF" stroke-width="6" stroke-linecap="round"/>
<path d="M402.472 555.599C406.677 557.227 410.454 559.474 414.431 561.579" stroke="#1400FF" stroke-width="6" stroke-linecap="round"/>
<path d="M868.472 233.6C872.677 235.228 876.454 237.474 880.431 239.579" stroke="#1400FF" stroke-width="6" stroke-linecap="round"/>
<path d="M932.472 559.6C936.677 561.228 940.454 563.474 944.431 565.579" stroke="#1400FF" stroke-width="6" stroke-linecap="round"/>
<path d="M919.472 753.6C923.677 755.228 927.454 757.474 931.431 759.579" stroke="#1400FF" stroke-width="6" stroke-linecap="round"/>
<path d="M275.751 293.044C279.957 294.672 283.734 296.918 287.71 299.024" stroke="#1400FF" stroke-width="6" stroke-linecap="round"/>
<path d="M356.751 447.044C360.957 448.672 364.734 450.918 368.71 453.024" stroke="#1400FF" stroke-width="6" stroke-linecap="round"/>
<path d="M518.751 755.044C522.957 756.672 526.734 758.918 530.71 761.024" stroke="#1400FF" stroke-width="6" stroke-linecap="round"/>
<path d="M319.751 887.272C323.957 888.9 327.734 891.147 331.71 893.252" stroke="#1400FF" stroke-width="6" stroke-linecap="round"/>
<path d="M450.751 197.044C454.957 198.672 458.734 200.918 462.71 203.024" stroke="#1400FF" stroke-width="6" stroke-linecap="round"/>
<path d="M903.751 279.044C907.957 280.672 911.734 282.918 915.71 285.023" stroke="#1400FF" stroke-width="6" stroke-linecap="round"/>
<path d="M1031.62 3C1035.83 4.62796 1039.6 6.87432 1043.58 8.97955" stroke="#1400FF" stroke-width="6" stroke-linecap="round"/>
<path d="M980.751 411.044C984.957 412.672 988.734 414.918 992.71 417.023" stroke="#1400FF" stroke-width="6" stroke-linecap="round"/>
<path d="M954.751 799.044C958.957 800.672 962.734 802.918 966.71 805.023" stroke="#1400FF" stroke-width="6" stroke-linecap="round"/>
<path d="M256.331 114.237C260.536 115.865 264.313 118.111 268.29 120.216" stroke="#1400FF" stroke-width="6" stroke-linecap="round"/>
<path d="M337.331 268.237C341.536 269.865 345.313 272.111 349.29 274.216" stroke="#1400FF" stroke-width="6" stroke-linecap="round"/>
<path d="M418.331 422.237C422.536 423.865 426.313 426.111 430.29 428.216" stroke="#1400FF" stroke-width="6" stroke-linecap="round"/>
<path d="M580.331 730.237C584.536 731.865 588.313 734.111 592.29 736.216" stroke="#1400FF" stroke-width="6" stroke-linecap="round"/>
<path d="M965.331 254.237C969.536 255.865 973.313 258.111 977.29 260.216" stroke="#1400FF" stroke-width="6" stroke-linecap="round"/>
<path d="M1042.33 386.237C1046.54 387.865 1050.31 390.111 1054.29 392.216" stroke="#1400FF" stroke-width="6" stroke-linecap="round"/>
<path d="M1170.2 110.193C1174.4 111.821 1178.18 114.067 1182.16 116.172" stroke="#1400FF" stroke-width="6" stroke-linecap="round"/>
<path d="M1029.33 580.237C1033.54 581.865 1037.31 584.111 1041.29 586.216" stroke="#1400FF" stroke-width="6" stroke-linecap="round"/>
<path d="M1016.33 774.237C1020.54 775.865 1024.31 778.111 1028.29 780.216" stroke="#1400FF" stroke-width="6" stroke-linecap="round"/>
<path d="M1123.43 886C1127.63 887.628 1131.41 889.874 1135.39 891.98" stroke="#1400FF" stroke-width="6" stroke-linecap="round"/>
<path d="M525.696 218.898C529.901 220.526 533.678 222.772 537.655 224.877" stroke="#1400FF" stroke-width="6" stroke-linecap="round"/>
<path d="M606.696 372.898C610.901 374.526 614.678 376.772 618.655 378.877" stroke="#1400FF" stroke-width="6" stroke-linecap="round"/>
<path d="M687.696 526.898C691.901 528.526 695.678 530.772 699.655 532.877" stroke="#1400FF" stroke-width="6" stroke-linecap="round"/>
<path d="M647.793 925.199C651.999 926.827 655.776 929.073 659.753 931.179" stroke="#1400FF" stroke-width="6" stroke-linecap="round"/>
<path d="M700.696 122.898C704.901 124.526 708.678 126.772 712.655 128.877" stroke="#1400FF" stroke-width="6" stroke-linecap="round"/>
<path d="M1153.7 204.898C1157.9 206.526 1161.68 208.772 1165.65 210.877" stroke="#1400FF" stroke-width="6" stroke-linecap="round"/>
<path d="M1230.7 336.898C1234.9 338.526 1238.68 340.772 1242.65 342.877" stroke="#1400FF" stroke-width="6" stroke-linecap="round"/>
<path d="M1217.7 530.898C1221.9 532.526 1225.68 534.772 1229.65 536.877" stroke="#1400FF" stroke-width="6" stroke-linecap="round"/>
<path d="M491.327 37.6986C495.532 39.3266 499.309 41.5729 503.286 43.6782" stroke="#1400FF" stroke-width="6" stroke-linecap="round"/>
<path d="M747.327 95.6986C751.532 97.3266 755.309 99.5729 759.286 101.678" stroke="#1400FF" stroke-width="6" stroke-linecap="round"/>
<path d="M1200.33 177.699C1204.53 179.327 1208.31 181.573 1212.29 183.678" stroke="#1400FF" stroke-width="6" stroke-linecap="round"/>
<path d="M1264.33 503.699C1268.53 505.327 1272.31 507.573 1276.29 509.678" stroke="#1400FF" stroke-width="6" stroke-linecap="round"/>
<path d="M1251.33 697.699C1255.53 699.327 1259.31 701.573 1263.29 703.678" stroke="#1400FF" stroke-width="6" stroke-linecap="round"/>
<path d="M622.288 35C626.494 36.628 630.271 38.8743 634.247 40.9795" stroke="#1400FF" stroke-width="6" stroke-linecap="round"/>
<path d="M784.288 343C788.494 344.628 792.271 346.874 796.247 348.98" stroke="#1400FF" stroke-width="6" stroke-linecap="round"/>
<path d="M865.288 497C869.494 498.628 873.271 500.874 877.247 502.98" stroke="#1400FF" stroke-width="6" stroke-linecap="round"/>
<path d="M878.288 93C882.494 94.628 886.271 96.8743 890.247 98.9795" stroke="#1400FF" stroke-width="6" stroke-linecap="round"/>
<path d="M1331.29 175C1335.49 176.628 1339.27 178.874 1343.25 180.98" stroke="#1400FF" stroke-width="6" stroke-linecap="round"/>
<path d="M1395.29 501C1399.49 502.628 1403.27 504.874 1407.25 506.98" stroke="#1400FF" stroke-width="6" stroke-linecap="round"/>
<path d="M219 204.775C223.206 206.403 226.983 208.649 230.959 210.754" stroke="#1400FF" stroke-width="6" stroke-linecap="round"/>
<path d="M462 666.775C466.206 668.403 469.983 670.649 473.959 672.754" stroke="#1400FF" stroke-width="6" stroke-linecap="round"/>
<path d="M344 953.003C348.206 954.631 351.983 956.877 355.959 958.983" stroke="#1400FF" stroke-width="6" stroke-linecap="round"/>
<path d="M475 262.775C479.206 264.403 482.983 266.649 486.959 268.754" stroke="#1400FF" stroke-width="6" stroke-linecap="round"/>
<path d="M928 344.775C932.206 346.403 935.983 348.649 939.959 350.754" stroke="#1400FF" stroke-width="6" stroke-linecap="round"/>
<path d="M1005 476.775C1009.21 478.403 1012.98 480.649 1016.96 482.754" stroke="#1400FF" stroke-width="6" stroke-linecap="round"/>
<path d="M992 670.775C996.206 672.403 999.983 674.649 1003.96 676.754" stroke="#1400FF" stroke-width="6" stroke-linecap="round"/>
<path d="M979 864.775C983.206 866.403 986.983 868.649 990.959 870.754" stroke="#1400FF" stroke-width="6" stroke-linecap="round"/>
<path d="M1086.1 976.538C1090.3 978.166 1094.08 980.412 1098.06 982.518" stroke="#1400FF" stroke-width="6" stroke-linecap="round"/>
<path d="M247 683.652C251.206 685.28 254.983 687.527 258.959 689.632" stroke="#1400FF" stroke-width="6" stroke-linecap="round"/>
<path d="M119 685.954C123.206 687.582 126.983 689.828 130.959 691.933" stroke="#1400FF" stroke-width="6" stroke-linecap="round"/>
<path d="M777 687.652C781.206 689.28 784.983 691.527 788.959 693.632" stroke="#1400FF" stroke-width="6" stroke-linecap="round"/>
<path d="M29.3101 136.772C33.5156 138.4 37.2926 140.646 41.2692 142.751" stroke="#1400FF" stroke-width="6" stroke-linecap="round"/>
<path d="M191.31 444.772C195.516 446.4 199.293 448.646 203.269 450.751" stroke="#1400FF" stroke-width="6" stroke-linecap="round"/>
<path d="M272.31 598.772C276.516 600.4 280.293 602.646 284.269 604.751" stroke="#1400FF" stroke-width="6" stroke-linecap="round"/>
<path d="M285.31 194.772C289.516 196.4 293.293 198.646 297.269 200.751" stroke="#1400FF" stroke-width="6" stroke-linecap="round"/>
<path d="M738.31 276.772C742.516 278.4 746.293 280.646 750.269 282.751" stroke="#1400FF" stroke-width="6" stroke-linecap="round"/>
<path d="M815.31 408.772C819.516 410.4 823.293 412.646 827.269 414.751" stroke="#1400FF" stroke-width="6" stroke-linecap="round"/>
<path d="M943.179 132.728C947.384 134.356 951.161 136.602 955.138 138.707" stroke="#1400FF" stroke-width="6" stroke-linecap="round"/>
<path d="M896.408 908.535C900.613 910.163 904.39 912.409 908.367 914.514" stroke="#1400FF" stroke-width="6" stroke-linecap="round"/>
<path d="M574 93.6986C578.206 95.3266 581.983 97.5729 585.959 99.6782" stroke="#1400FF" stroke-width="6" stroke-linecap="round"/>
<path d="M736 401.699C740.206 403.327 743.983 405.573 747.959 407.678" stroke="#1400FF" stroke-width="6" stroke-linecap="round"/>
<path d="M830 151.699C834.206 153.327 837.983 155.573 841.959 157.678" stroke="#1400FF" stroke-width="6" stroke-linecap="round"/>
<path d="M1283 233.699C1287.21 235.327 1290.98 237.573 1294.96 239.678" stroke="#1400FF" stroke-width="6" stroke-linecap="round"/>
<path d="M1334 753.699C1338.21 755.327 1341.98 757.573 1345.96 759.678" stroke="#1400FF" stroke-width="6" stroke-linecap="round"/>
<path d="M398 361.245C402.206 362.873 405.983 365.12 409.959 367.225" stroke="#1400FF" stroke-width="6" stroke-linecap="round"/>
<path d="M479 515.245C483.206 516.873 486.983 519.12 490.959 521.225" stroke="#1400FF" stroke-width="6" stroke-linecap="round"/>
<path d="M560 669.245C564.206 670.873 567.983 673.12 571.959 675.225" stroke="#1400FF" stroke-width="6" stroke-linecap="round"/>
<path d="M945 193.246C949.206 194.874 952.983 197.12 956.959 199.225" stroke="#1400FF" stroke-width="6" stroke-linecap="round"/>
<path d="M1149.87 49.2017C1154.07 50.8296 1157.85 53.076 1161.83 55.1812" stroke="#1400FF" stroke-width="6" stroke-linecap="round"/>
<path d="M668 328.63C672.205 330.258 675.982 332.505 679.959 334.61" stroke="#1400FF" stroke-width="6" stroke-linecap="round"/>
<path d="M1296 314.63C1300.21 316.258 1303.98 318.505 1307.96 320.61" stroke="#1400FF" stroke-width="6" stroke-linecap="round"/>
<path d="M1373 446.63C1377.21 448.258 1380.98 450.505 1384.96 452.61" stroke="#1400FF" stroke-width="6" stroke-linecap="round"/>
<path d="M1360 640.63C1364.21 642.258 1367.98 644.505 1371.96 646.61" stroke="#1400FF" stroke-width="6" stroke-linecap="round"/>
<path d="M1347 834.63C1351.21 836.258 1354.98 838.505 1358.96 840.61" stroke="#1400FF" stroke-width="6" stroke-linecap="round"/>
<path d="M101.662 99.6986C96.7421 107.338 89.033 106.817 80.7339 107.472" stroke="#1400FF" stroke-width="6" stroke-linecap="round"/>
<path d="M182.662 253.699C177.742 261.338 170.033 260.817 161.734 261.472" stroke="#1400FF" stroke-width="6" stroke-linecap="round"/>
<path d="M263.662 407.699C258.742 415.338 251.033 414.817 242.734 415.472" stroke="#1400FF" stroke-width="6" stroke-linecap="round"/>
<path d="M344.662 561.699C339.742 569.338 332.033 568.817 323.734 569.472" stroke="#1400FF" stroke-width="6" stroke-linecap="round"/>
<path d="M216.662 564C211.742 571.639 204.033 571.118 195.734 571.773" stroke="#1400FF" stroke-width="6" stroke-linecap="round"/>
<path d="M425.662 715.699C420.742 723.338 413.033 722.817 404.734 723.472" stroke="#1400FF" stroke-width="6" stroke-linecap="round"/>
<path d="M226.662 847.927C221.742 855.566 214.033 855.045 205.734 855.7" stroke="#1400FF" stroke-width="6" stroke-linecap="round"/>
<path d="M357.662 157.699C352.742 165.338 345.033 164.817 336.734 165.472" stroke="#1400FF" stroke-width="6" stroke-linecap="round"/>
<path d="M810.662 239.699C805.742 247.338 798.033 246.817 789.734 247.472" stroke="#1400FF" stroke-width="6" stroke-linecap="round"/>
<path d="M887.663 371.699C882.743 379.338 875.033 378.817 866.734 379.472" stroke="#1400FF" stroke-width="6" stroke-linecap="round"/>
<path d="M1015.53 95.6548C1010.61 103.294 1002.9 102.773 994.603 103.428" stroke="#1400FF" stroke-width="6" stroke-linecap="round"/>
<path d="M874.663 565.699C869.743 573.338 862.033 572.817 853.734 573.472" stroke="#1400FF" stroke-width="6" stroke-linecap="round"/>
<path d="M94.2941 221.562C89.374 229.201 81.6648 228.68 73.3657 229.335" stroke="#1400FF" stroke-width="6" stroke-linecap="round"/>
<path d="M175.294 375.562C170.374 383.201 162.665 382.68 154.366 383.335" stroke="#1400FF" stroke-width="6" stroke-linecap="round"/>
<path d="M128.294 531.863C123.374 539.503 115.665 538.982 107.366 539.637" stroke="#1400FF" stroke-width="6" stroke-linecap="round"/>
<path d="M337.294 683.562C332.374 691.201 324.665 690.68 316.366 691.335" stroke="#1400FF" stroke-width="6" stroke-linecap="round"/>
<path d="M138.294 815.79C133.374 823.429 125.665 822.908 117.366 823.564" stroke="#1400FF" stroke-width="6" stroke-linecap="round"/>
<path d="M418.294 837.562C413.374 845.201 405.665 844.68 397.366 845.335" stroke="#1400FF" stroke-width="6" stroke-linecap="round"/>
<path d="M867.294 687.562C862.373 695.201 854.664 694.68 846.365 695.335" stroke="#1400FF" stroke-width="6" stroke-linecap="round"/>
<path d="M961.391 993.325C956.471 1000.96 948.762 1000.44 940.463 1001.1" stroke="#1400FF" stroke-width="6" stroke-linecap="round"/>
<path d="M148.11 163.56C143.19 171.199 135.481 170.678 127.182 171.334" stroke="#1400FF" stroke-width="6" stroke-linecap="round"/>
<path d="M229.11 317.56C224.19 325.199 216.481 324.678 208.182 325.334" stroke="#1400FF" stroke-width="6" stroke-linecap="round"/>
<path d="M310.11 471.56C305.19 479.199 297.481 478.678 289.182 479.334" stroke="#1400FF" stroke-width="6" stroke-linecap="round"/>
<path d="M391.11 625.56C386.19 633.199 378.481 632.678 370.182 633.334" stroke="#1400FF" stroke-width="6" stroke-linecap="round"/>
<path d="M192.11 757.788C187.19 765.428 179.481 764.907 171.182 765.562" stroke="#1400FF" stroke-width="6" stroke-linecap="round"/>
<path d="M472.11 779.56C467.19 787.199 459.481 786.678 451.182 787.334" stroke="#1400FF" stroke-width="6" stroke-linecap="round"/>
<path d="M273.11 911.788C268.19 919.428 260.481 918.907 252.182 919.562" stroke="#1400FF" stroke-width="6" stroke-linecap="round"/>
<path d="M404.11 221.56C399.19 229.199 391.481 228.678 383.182 229.334" stroke="#1400FF" stroke-width="6" stroke-linecap="round"/>
<path d="M857.11 303.56C852.19 311.199 844.481 310.678 836.182 311.333" stroke="#1400FF" stroke-width="6" stroke-linecap="round"/>
<path d="M984.979 27.5161C980.059 35.1553 972.349 34.6343 964.05 35.2895" stroke="#1400FF" stroke-width="6" stroke-linecap="round"/>
<path d="M934.11 435.56C929.19 443.199 921.481 442.678 913.182 443.333" stroke="#1400FF" stroke-width="6" stroke-linecap="round"/>
<path d="M1061.98 159.516C1057.06 167.155 1049.35 166.634 1041.05 167.29" stroke="#1400FF" stroke-width="6" stroke-linecap="round"/>
<path d="M921.11 629.56C916.19 637.199 908.481 636.678 900.182 637.333" stroke="#1400FF" stroke-width="6" stroke-linecap="round"/>
<path d="M908.11 823.56C903.19 831.199 895.481 830.678 887.182 831.333" stroke="#1400FF" stroke-width="6" stroke-linecap="round"/>
<path d="M1015.21 935.323C1010.29 942.962 1002.58 942.441 994.279 943.097" stroke="#1400FF" stroke-width="6" stroke-linecap="round"/>
<path d="M331.673 57.4312C326.752 65.0704 319.043 64.5494 310.744 65.2046" stroke="#1400FF" stroke-width="6" stroke-linecap="round"/>
<path d="M574.673 519.431C569.752 527.07 562.043 526.549 553.744 527.205" stroke="#1400FF" stroke-width="6" stroke-linecap="round"/>
<path d="M655.673 673.431C650.752 681.07 643.043 680.549 634.744 681.205" stroke="#1400FF" stroke-width="6" stroke-linecap="round"/>
<path d="M1117.67 329.431C1112.75 337.07 1105.04 336.549 1096.74 337.205" stroke="#1400FF" stroke-width="6" stroke-linecap="round"/>
<path d="M1245.54 53.3872C1240.62 61.0264 1232.91 60.5054 1224.61 61.1606" stroke="#1400FF" stroke-width="6" stroke-linecap="round"/>
<path d="M1104.67 523.431C1099.75 531.07 1092.04 530.549 1083.74 531.205" stroke="#1400FF" stroke-width="6" stroke-linecap="round"/>
<path d="M1091.67 717.431C1086.75 725.07 1079.04 724.549 1070.74 725.205" stroke="#1400FF" stroke-width="6" stroke-linecap="round"/>
<path d="M633.87 582.216C628.95 589.856 621.241 589.335 612.942 589.99" stroke="#1400FF" stroke-width="6" stroke-linecap="round"/>
<path d="M593.968 980.518C589.048 988.157 581.339 987.636 573.04 988.291" stroke="#1400FF" stroke-width="6" stroke-linecap="round"/>
<path d="M714.87 736.216C709.95 743.856 702.241 743.335 693.942 743.99" stroke="#1400FF" stroke-width="6" stroke-linecap="round"/>
<path d="M646.87 178.216C641.95 185.856 634.241 185.335 625.942 185.99" stroke="#1400FF" stroke-width="6" stroke-linecap="round"/>
<path d="M1176.87 392.216C1171.95 399.856 1164.24 399.335 1155.94 399.99" stroke="#1400FF" stroke-width="6" stroke-linecap="round"/>
<path d="M1150.87 780.216C1145.95 787.856 1138.24 787.335 1129.94 787.99" stroke="#1400FF" stroke-width="6" stroke-linecap="round"/>
<path d="M521.832 117.518C516.912 125.157 509.202 124.636 500.903 125.291" stroke="#1400FF" stroke-width="6" stroke-linecap="round"/>
<path d="M602.832 271.518C597.912 279.157 590.202 278.636 581.903 279.291" stroke="#1400FF" stroke-width="6" stroke-linecap="round"/>
<path d="M683.832 425.518C678.912 433.157 671.202 432.636 662.903 433.291" stroke="#1400FF" stroke-width="6" stroke-linecap="round"/>
<path d="M764.832 579.518C759.912 587.157 752.202 586.636 743.903 587.291" stroke="#1400FF" stroke-width="6" stroke-linecap="round"/>
<path d="M845.832 733.518C840.912 741.157 833.202 740.636 824.903 741.291" stroke="#1400FF" stroke-width="6" stroke-linecap="round"/>
<path d="M777.832 175.518C772.912 183.157 765.202 182.636 756.903 183.291" stroke="#1400FF" stroke-width="6" stroke-linecap="round"/>
<path d="M1230.83 257.518C1225.91 265.157 1218.2 264.636 1209.9 265.291" stroke="#1400FF" stroke-width="6" stroke-linecap="round"/>
<path d="M1307.83 389.518C1302.91 397.157 1295.2 396.636 1286.9 397.291" stroke="#1400FF" stroke-width="6" stroke-linecap="round"/>
<path d="M1294.83 583.518C1289.91 591.157 1282.2 590.636 1273.9 591.291" stroke="#1400FF" stroke-width="6" stroke-linecap="round"/>
<path d="M1281.83 777.518C1276.91 785.157 1269.2 784.636 1260.9 785.291" stroke="#1400FF" stroke-width="6" stroke-linecap="round"/>
<path d="M1388.93 889.281C1384.01 896.92 1376.3 896.399 1368 897.054" stroke="#1400FF" stroke-width="6" stroke-linecap="round"/>
<path d="M413.004 295.699C408.084 303.338 400.375 302.817 392.076 303.472" stroke="#1400FF" stroke-width="6" stroke-linecap="round"/>
<path d="M494.004 449.699C489.084 457.338 481.375 456.817 473.076 457.472" stroke="#1400FF" stroke-width="6" stroke-linecap="round"/>
<path d="M575.004 603.699C570.084 611.338 562.375 610.817 554.076 611.472" stroke="#1400FF" stroke-width="6" stroke-linecap="round"/>
<path d="M457.004 889.927C452.084 897.566 444.375 897.045 436.076 897.7" stroke="#1400FF" stroke-width="6" stroke-linecap="round"/>
<path d="M1041 281.699C1036.08 289.338 1028.37 288.817 1020.08 289.472" stroke="#1400FF" stroke-width="6" stroke-linecap="round"/>
<path d="M1118 413.699C1113.08 421.338 1105.38 420.817 1097.08 421.472" stroke="#1400FF" stroke-width="6" stroke-linecap="round"/>
<path d="M1105 607.699C1100.08 615.338 1092.38 614.817 1084.08 615.472" stroke="#1400FF" stroke-width="6" stroke-linecap="round"/>
<path d="M1199.1 913.462C1194.18 921.101 1186.47 920.58 1178.17 921.235" stroke="#1400FF" stroke-width="6" stroke-linecap="round"/>
<path d="M124.06 338.699C119.14 346.338 111.43 345.817 103.131 346.472" stroke="#1400FF" stroke-width="6" stroke-linecap="round"/>
<path d="M77.0598 495C72.1396 502.639 64.4304 502.118 56.1313 502.773" stroke="#1400FF" stroke-width="6" stroke-linecap="round"/>
<path d="M158.06 649C153.14 656.639 145.43 656.118 137.131 656.773" stroke="#1400FF" stroke-width="6" stroke-linecap="round"/>
<path d="M87.0598 778.927C82.1396 786.566 74.4304 786.045 66.1313 786.7" stroke="#1400FF" stroke-width="6" stroke-linecap="round"/>
<path d="M168.06 932.927C163.14 940.566 155.43 940.045 147.131 940.7" stroke="#1400FF" stroke-width="6" stroke-linecap="round"/>
<path d="M829.06 456.699C824.14 464.338 816.43 463.817 808.131 464.472" stroke="#1400FF" stroke-width="6" stroke-linecap="round"/>
<path d="M803.06 844.699C798.14 852.338 790.43 851.817 782.131 852.472" stroke="#1400FF" stroke-width="6" stroke-linecap="round"/>
<path d="M910.157 956.462C905.237 964.101 897.528 963.58 889.229 964.235" stroke="#1400FF" stroke-width="6" stroke-linecap="round"/>
<path d="M23.9284 265.93C19.0082 273.569 11.2991 273.048 3 273.703" stroke="#1400FF" stroke-width="6" stroke-linecap="round"/>
<path d="M104.928 419.93C100.008 427.569 92.2991 427.048 84 427.703" stroke="#1400FF" stroke-width="6" stroke-linecap="round"/>
<path d="M57.9284 576.231C53.0082 583.871 45.2991 583.35 37 584.005" stroke="#1400FF" stroke-width="6" stroke-linecap="round"/>
<path d="M67.9284 860.158C63.0082 867.797 55.2991 867.276 47 867.932" stroke="#1400FF" stroke-width="6" stroke-linecap="round"/>
<path d="M693.026 804.231C688.106 811.871 680.397 811.35 672.098 812.005" stroke="#1400FF" stroke-width="6" stroke-linecap="round"/>
<path d="M809.928 537.93C805.008 545.569 797.299 545.048 789 545.703" stroke="#1400FF" stroke-width="6" stroke-linecap="round"/>
<path d="M783.928 925.93C779.008 933.569 771.299 933.048 763 933.703" stroke="#1400FF" stroke-width="6" stroke-linecap="round"/>
<path d="M201.926 40.9795C197.006 48.6187 189.297 48.0977 180.998 48.7529" stroke="#1400FF" stroke-width="6" stroke-linecap="round"/>
<path d="M326.926 789.208C322.006 796.847 314.297 796.326 305.998 796.981" stroke="#1400FF" stroke-width="6" stroke-linecap="round"/>
<path d="M457.926 98.9795C453.006 106.619 445.297 106.098 436.998 106.753" stroke="#1400FF" stroke-width="6" stroke-linecap="round"/>
<path d="M910.926 180.979C906.006 188.619 898.297 188.098 889.998 188.753" stroke="#1400FF" stroke-width="6" stroke-linecap="round"/>
<path d="M1115.8 36.9355C1110.87 44.5748 1103.17 44.0538 1094.87 44.709" stroke="#1400FF" stroke-width="6" stroke-linecap="round"/>
<path d="M974.926 506.979C970.006 514.619 962.297 514.098 953.998 514.753" stroke="#1400FF" stroke-width="6" stroke-linecap="round"/>
<path d="M961.926 700.979C957.006 708.619 949.297 708.098 940.998 708.753" stroke="#1400FF" stroke-width="6" stroke-linecap="round"/>
<path d="M644.488 122.3C639.568 129.939 631.859 129.418 623.56 130.073" stroke="#1400FF" stroke-width="6" stroke-linecap="round"/>
<path d="M1097.49 204.3C1092.57 211.939 1084.86 211.418 1076.56 212.073" stroke="#1400FF" stroke-width="6" stroke-linecap="round"/>
<path d="M1161.49 530.3C1156.57 537.939 1148.86 537.418 1140.56 538.073" stroke="#1400FF" stroke-width="6" stroke-linecap="round"/>
<path d="M1148.49 724.3C1143.57 731.939 1135.86 731.418 1127.56 732.073" stroke="#1400FF" stroke-width="6" stroke-linecap="round"/>
<path d="M541.831 320.857C536.911 328.496 529.201 327.975 520.902 328.63" stroke="#1400FF" stroke-width="6" stroke-linecap="round"/>
<path d="M582.928 873.158C578.008 880.797 570.299 880.276 562 880.932" stroke="#1400FF" stroke-width="6" stroke-linecap="round"/>
<path d="M703.831 628.857C698.911 636.496 691.201 635.975 682.902 636.63" stroke="#1400FF" stroke-width="6" stroke-linecap="round"/>
<path d="M784.831 782.857C779.911 790.496 772.201 789.975 763.902 790.63" stroke="#1400FF" stroke-width="6" stroke-linecap="round"/>
<path d="M716.831 224.857C711.911 232.496 704.201 231.975 695.902 232.63" stroke="#1400FF" stroke-width="6" stroke-linecap="round"/>
<path d="M1169.83 306.857C1164.91 314.496 1157.2 313.975 1148.9 314.63" stroke="#1400FF" stroke-width="6" stroke-linecap="round"/>
<path d="M1246.83 438.857C1241.91 446.496 1234.2 445.975 1225.9 446.63" stroke="#1400FF" stroke-width="6" stroke-linecap="round"/>
<path d="M1233.83 632.857C1228.91 640.496 1221.2 639.975 1212.9 640.63" stroke="#1400FF" stroke-width="6" stroke-linecap="round"/>
<path d="M1327.93 938.62C1323.01 946.259 1315.3 945.738 1307 946.394" stroke="#1400FF" stroke-width="6" stroke-linecap="round"/>
</svg>
