<svg width="1370" height="983" viewBox="0 0 1370 983" fill="none" xmlns="http://www.w3.org/2000/svg">
<path d="M426.829 176C398.829 176 372.614 203.065 387.139 236" stroke="#1400FF" stroke-width="28" stroke-linecap="round"/>
<path d="M606.829 412C578.829 412 552.614 439.065 567.139 472" stroke="#1400FF" stroke-width="28" stroke-linecap="round"/>
<path d="M777.829 689C749.829 689 723.614 716.065 738.139 749" stroke="#1400FF" stroke-width="28" stroke-linecap="round"/>
<path d="M944.829 351C916.829 351 890.614 378.065 905.139 411" stroke="#1400FF" stroke-width="28" stroke-linecap="round"/>
<path d="M1179.83 520C1151.83 520 1125.61 547.065 1140.14 580" stroke="#1400FF" stroke-width="28" stroke-linecap="round"/>
<path d="M1321.83 238C1293.83 238 1267.61 265.065 1282.14 298" stroke="#1400FF" stroke-width="28" stroke-linecap="round"/>
<path d="M1025.83 810C997.829 810 971.614 837.065 986.139 870" stroke="#1400FF" stroke-width="28" stroke-linecap="round"/>
<path d="M399.829 692C371.829 692 345.614 719.065 360.139 752" stroke="#1400FF" stroke-width="28" stroke-linecap="round"/>
<path d="M782.829 314C754.829 314 728.614 341.065 743.139 374" stroke="#1400FF" stroke-width="28" stroke-linecap="round"/>
<path d="M786.829 110C758.829 110 732.614 137.065 747.139 170" stroke="#1400FF" stroke-width="28" stroke-linecap="round"/>
<path d="M1115.83 75C1087.83 75 1061.61 102.065 1076.14 135" stroke="#1400FF" stroke-width="28" stroke-linecap="round"/>
<path d="M1339.83 749C1311.83 749 1285.61 776.065 1300.14 809" stroke="#1400FF" stroke-width="28" stroke-linecap="round"/>
<path d="M468 258C475.033 260.723 481.35 264.479 488 268" stroke="#1400FF" stroke-width="28" stroke-linecap="round"/>
<path d="M527 334C534.033 336.723 540.35 340.479 547 344" stroke="#1400FF" stroke-width="28" stroke-linecap="round"/>
<path d="M707 570C714.033 572.723 720.35 576.479 727 580" stroke="#1400FF" stroke-width="28" stroke-linecap="round"/>
<path d="M945 210C952.033 212.723 958.35 216.479 965 220" stroke="#1400FF" stroke-width="28" stroke-linecap="round"/>
<path d="M1100 442C1107.03 444.723 1113.35 448.479 1120 452" stroke="#1400FF" stroke-width="28" stroke-linecap="round"/>
<path d="M1242 160C1249.03 162.723 1255.35 166.479 1262 170" stroke="#1400FF" stroke-width="28" stroke-linecap="round"/>
<path d="M512 698C519.033 700.723 525.35 704.479 532 708" stroke="#1400FF" stroke-width="28" stroke-linecap="round"/>
<path d="M279 846C286.033 848.723 292.35 852.479 299 856" stroke="#1400FF" stroke-width="28" stroke-linecap="round"/>
<path d="M58 298C65.0333 300.723 71.3497 304.479 78 308" stroke="#1400FF" stroke-width="28" stroke-linecap="round"/>
<path d="M707 32C714.033 34.7225 720.35 38.4793 727 42" stroke="#1400FF" stroke-width="28" stroke-linecap="round"/>
<path d="M673 468C680.033 470.723 686.35 474.479 693 478" stroke="#1400FF" stroke-width="28" stroke-linecap="round"/>
<path d="M1260 671C1267.03 673.723 1273.35 677.479 1280 681" stroke="#1400FF" stroke-width="28" stroke-linecap="round"/>
<path d="M259 121C244.054 120.108 211.96 116.497 208.111 137.667C205.041 154.552 222.837 164.82 235.556 169.611C250.016 175.058 264.056 174.472 279 176" stroke="#1400FF" stroke-width="28" stroke-linecap="round"/>
<path d="M53.359 37.0558C44.4866 49.1166 24.0126 74.0938 39.6901 88.8305C52.1946 100.585 70.4866 91.2282 81.4207 83.156C93.8524 73.9782 100.991 61.8748 110.396 50.1612" stroke="#1400FF" stroke-width="28" stroke-linecap="round"/>
<path d="M619 593C604.054 592.108 571.96 588.497 568.111 609.667C565.041 626.552 582.837 636.82 595.556 641.611C610.016 647.058 624.056 646.472 639 648" stroke="#1400FF" stroke-width="28" stroke-linecap="round"/>
<path d="M1335.24 478.795C1320.29 477.902 1288.2 474.292 1284.35 495.461C1281.28 512.346 1299.08 522.615 1311.79 527.406C1326.25 532.853 1340.29 532.266 1355.24 533.795" stroke="#1400FF" stroke-width="28" stroke-linecap="round"/>
<path d="M1012 465C997.054 464.108 964.96 460.497 961.111 481.667C958.041 498.552 975.837 508.82 988.556 513.611C1003.02 519.058 1017.06 518.472 1032 520" stroke="#1400FF" stroke-width="28" stroke-linecap="round"/>
<path d="M1154 183C1139.05 182.108 1106.96 178.497 1103.11 199.667C1100.04 216.552 1117.84 226.82 1130.56 231.611C1145.02 237.058 1159.06 236.472 1174 238" stroke="#1400FF" stroke-width="28" stroke-linecap="round"/>
<path d="M902.239 722.795C887.293 721.902 855.199 718.292 851.35 739.461C848.28 756.346 866.076 766.615 878.794 771.406C893.255 776.853 907.294 776.266 922.239 777.795" stroke="#1400FF" stroke-width="28" stroke-linecap="round"/>
<path d="M322.239 580.795C307.293 579.902 275.199 576.292 271.35 597.461C268.28 614.346 286.076 624.615 298.794 629.406C313.255 634.853 327.294 634.266 342.239 635.795" stroke="#1400FF" stroke-width="28" stroke-linecap="round"/>
<path d="M129 399C114.054 398.108 81.9605 394.497 78.1116 415.667C75.0416 432.552 92.8373 442.82 105.556 447.611C120.017 453.058 134.056 452.472 149 454" stroke="#1400FF" stroke-width="28" stroke-linecap="round"/>
<path d="M619 55C604.054 54.1077 571.961 50.4975 568.112 71.6667C565.042 88.5515 582.837 98.8204 595.556 103.611C610.017 109.058 624.056 108.472 639 110" stroke="#1400FF" stroke-width="28" stroke-linecap="round"/>
<path d="M948 19.9999C933.054 19.1076 900.961 15.4973 897.112 36.6665C894.042 53.5514 911.837 63.8203 924.556 68.611C939.017 74.0578 953.056 73.4715 968 74.9999" stroke="#1400FF" stroke-width="28" stroke-linecap="round"/>
<path d="M1172 694C1157.05 693.108 1124.96 689.497 1121.11 710.667C1118.04 727.551 1135.84 737.82 1148.56 742.611C1163.02 748.058 1177.06 747.471 1192 749" stroke="#1400FF" stroke-width="28" stroke-linecap="round"/>
<path d="M179 236C170.772 248.776 157.879 247.904 144 249" stroke="#1400FF" stroke-width="28" stroke-linecap="round"/>
<path d="M359 472C350.772 484.776 337.879 483.904 324 485" stroke="#1400FF" stroke-width="28" stroke-linecap="round"/>
<path d="M449 375C440.772 387.776 427.879 386.904 414 388" stroke="#1400FF" stroke-width="28" stroke-linecap="round"/>
<path d="M833 475C824.772 487.776 811.879 486.904 798 488" stroke="#1400FF" stroke-width="28" stroke-linecap="round"/>
<path d="M932 580C923.772 592.776 910.879 591.904 897 593" stroke="#1400FF" stroke-width="28" stroke-linecap="round"/>
<path d="M1074 298C1065.77 310.776 1052.88 309.904 1039 311" stroke="#1400FF" stroke-width="28" stroke-linecap="round"/>
<path d="M778 870C769.772 882.776 756.879 881.904 743 883" stroke="#1400FF" stroke-width="28" stroke-linecap="round"/>
<path d="M152 752C143.772 764.776 130.879 763.904 117 765" stroke="#1400FF" stroke-width="28" stroke-linecap="round"/>
<path d="M49 514C40.7717 526.776 27.8791 525.904 14 527" stroke="#1400FF" stroke-width="28" stroke-linecap="round"/>
<path d="M539 170C530.772 182.776 517.879 181.904 504 183" stroke="#1400FF" stroke-width="28" stroke-linecap="round"/>
<path d="M851 209C842.772 221.776 829.879 220.904 816 222" stroke="#1400FF" stroke-width="28" stroke-linecap="round"/>
<path d="M1049 658C1040.77 670.776 1027.88 669.904 1014 671" stroke="#1400FF" stroke-width="28" stroke-linecap="round"/>
<path d="M259.753 381.462C253.134 367.027 247.052 350.719 258.087 336.517C266.291 325.958 294.578 308.617 299.42 330.628C300.871 337.222 300.426 343.8 300.087 350.462C299.815 355.804 297.037 367.16 302.531 371.462C314.022 380.458 332.275 367.206 341.753 361.462" stroke="#1400FF" stroke-width="28" stroke-linecap="round"/>
<path d="M421.753 570.462C415.134 556.027 409.052 539.719 420.087 525.517C428.291 514.958 456.578 497.617 461.42 519.628C462.871 526.222 462.426 532.8 462.087 539.462C461.815 544.804 459.037 556.16 464.531 560.462C476.022 569.458 494.275 556.206 503.753 550.462" stroke="#1400FF" stroke-width="28" stroke-linecap="round"/>
<path d="M610.753 870.462C604.134 856.027 598.052 839.719 609.087 825.517C617.291 814.958 645.578 797.617 650.42 819.628C651.871 826.222 651.426 832.8 651.087 839.462C650.815 844.804 648.037 856.16 653.531 860.462C665.022 869.458 683.275 856.206 692.753 850.462" stroke="#1400FF" stroke-width="28" stroke-linecap="round"/>
<path d="M430.753 900.462C424.134 886.027 418.052 869.719 429.087 855.517C437.291 844.958 465.578 827.617 470.42 849.628C471.871 856.222 471.426 862.8 471.087 869.462C470.815 874.804 468.037 886.16 473.531 890.462C485.022 899.458 503.275 886.206 512.753 880.462" stroke="#1400FF" stroke-width="28" stroke-linecap="round"/>
<path d="M407.753 75.4617C401.134 61.0267 395.052 44.7192 406.087 30.5172C414.291 19.9584 442.578 2.6168 447.42 24.6283C448.871 31.2223 448.426 37.8005 448.087 44.4617C447.815 49.8043 445.037 61.1603 450.531 65.4617C462.022 74.4577 480.275 61.2061 489.753 55.4617" stroke="#1400FF" stroke-width="28" stroke-linecap="round"/>
<path d="M1136.75 396.462C1130.13 382.027 1124.05 365.719 1135.09 351.517C1143.29 340.958 1171.58 323.617 1176.42 345.628C1177.87 352.222 1177.43 358.8 1177.09 365.462C1176.82 370.804 1174.04 382.16 1179.53 386.462C1191.02 395.458 1209.28 382.206 1218.75 376.462" stroke="#1400FF" stroke-width="28" stroke-linecap="round"/>
<path d="M840.753 968.462C834.134 954.027 828.052 937.719 839.087 923.517C847.291 912.958 875.578 895.617 880.42 917.628C881.871 924.222 881.426 930.8 881.087 937.462C880.815 942.804 878.037 954.16 883.531 958.462C895.022 967.458 913.275 954.206 922.753 948.462" stroke="#1400FF" stroke-width="28" stroke-linecap="round"/>
<path d="M61.7535 923.462C55.1336 909.027 49.0522 892.719 60.0868 878.517C68.2908 867.958 96.5776 850.617 101.42 872.628C102.871 879.222 102.426 885.8 102.087 892.462C101.815 897.804 99.0371 909.16 104.531 913.462C116.022 922.458 134.275 909.206 143.753 903.462" stroke="#1400FF" stroke-width="28" stroke-linecap="round"/>
<path d="M111.753 612.462C105.134 598.027 99.0522 581.719 110.087 567.517C118.291 556.958 146.578 539.617 151.42 561.628C152.871 568.222 152.426 574.8 152.087 581.462C151.815 586.804 149.037 598.16 154.531 602.462C166.022 611.458 184.275 598.206 193.753 592.462" stroke="#1400FF" stroke-width="28" stroke-linecap="round"/>
<path d="M614.753 288.462C608.134 274.027 602.052 257.719 613.087 243.517C621.291 232.958 649.578 215.617 654.42 237.628C655.871 244.222 655.426 250.8 655.087 257.462C654.815 262.804 652.037 274.16 657.531 278.462C669.022 287.458 687.275 274.206 696.753 268.462" stroke="#1400FF" stroke-width="28" stroke-linecap="round"/>
<path d="M1262.75 82.4617C1256.13 68.0267 1250.05 51.7192 1261.09 37.5172C1269.29 26.9584 1297.58 9.6168 1302.42 31.6283C1303.87 38.2223 1303.43 44.8005 1303.09 51.4617C1302.82 56.8043 1300.04 68.1603 1305.53 72.4617C1317.02 81.4577 1335.28 68.2061 1344.75 62.4617" stroke="#1400FF" stroke-width="28" stroke-linecap="round"/>
<path d="M1154.75 907.462C1148.13 893.027 1142.05 876.719 1153.09 862.517C1161.29 851.958 1189.58 834.617 1194.42 856.628C1195.87 863.222 1195.43 869.8 1195.09 876.462C1194.82 881.804 1192.04 893.16 1197.53 897.462C1209.02 906.458 1227.28 893.206 1236.75 887.462" stroke="#1400FF" stroke-width="28" stroke-linecap="round"/>
</svg>
